<?xml version="1.0" encoding="UTF-8"?>
<!DOCTYPE svg PUBLIC "-//W3C//DTD SVG 1.1//EN" "http://www.w3.org/Graphics/SVG/1.1/DTD/svg11.dtd">
<!-- Creator: CorelDRAW -->
<svg xmlns="http://www.w3.org/2000/svg" xml:space="preserve" width="8.26772in" height="11.6929in" style="shape-rendering:geometricPrecision; text-rendering:geometricPrecision; image-rendering:optimizeQuality; fill-rule:evenodd; clip-rule:evenodd"
viewBox="0 0 8.26772 11.6929"
 xmlns:xlink="http://www.w3.org/1999/xlink">
 <defs>
  <style type="text/css">
   <![CDATA[
    .fil2 {fill:none}
    .fil1 {fill:#8682AB}
    .fil0 {fill:url(#id7)}
    .fil3 {fill:url(#id8);fill-rule:nonzero}
   ]]>
  </style>
    <clipPath id="id0">
     <path d="M4.22429 1.40467c0.025626,-0.0234252 0.0477047,-0.0270709 0.0637362,-0.0192913 -0.0148346,-0.013122 -0.021315,-0.0157598 -0.0313898,-0.0124409 -0.0104173,0.00343701 -0.0197559,0.0105394 -0.0323465,0.0317323zm0.0282953 -0.0149055c-0.0136378,0.00570472 -0.0269252,0.0145709 -0.031689,0.0226457 -0.00359843,0.00609843 -0.00247638,0.013248 0.00901181,0.0198622 0.0290709,-0.0276811 0.0576063,-0.0365433 0.0750827,-0.0259882 -0.00361417,-0.00535827 -0.00638583,-0.00965354 -0.012252,-0.0143228 -0.00933858,-0.00634646 -0.0284331,-0.00709843 -0.0401535,-0.00219685zm-0.0324528 0.0826063c0.00967323,0.0101693 0.0333858,0.00766929 0.0448701,0.00472441 0.00904331,-0.00231496 0.0234094,-0.0085315 0.0366417,-0.0208819 -0.0281969,-0.00538189 -0.0562008,-0.0100197 -0.0815118,0.0161575zm-0.00159055 -0.00136614c0.0158701,-0.0178386 0.0314213,-0.0224803 0.0499764,-0.021315 -0.0129961,-0.00187008 -0.0284685,-0.00516142 -0.0389252,-0.00932677 -0.0066811,0.00658661 -0.0109134,0.011748 -0.0130512,0.0153622 -0.00327165,0.00682283 -0.00368504,0.00959449 0.002,0.0152795zm0.0882559 -0.0196614c0.0122598,-0.016063 0.0121929,-0.0218465 0.0025315,-0.0371693 -0.0106102,-0.00686614 -0.0401772,-0.00688189 -0.0744331,0.0208937 0.0132874,0.00802362 0.0622323,0.0164331 0.0719016,0.0162756zm-0.0915866 -0.0241339c-0.00267323,0.00979134 -0.00427165,0.0180118 -0.00297244,0.0285354 0.00322441,-0.00645276 0.00820079,-0.0126811 0.0129016,-0.0181811 -0.00544488,-0.00268898 -0.0102559,-0.0065 -0.00992913,-0.0103543z"/>
    </clipPath>
      <mask id="id1">
  <linearGradient id="id2" gradientUnits="userSpaceOnUse" x1="4.24626" y1="1.41698" x2="4.28182" y2="1.43434">
   <stop offset="0" style="stop-opacity:1; stop-color:white"/>
   <stop offset="0.588235" style="stop-opacity:0.501961; stop-color:white"/>
   <stop offset="1" style="stop-opacity:0; stop-color:white"/>
  </linearGradient>
       <rect style="fill:url(#id2)" x="4.21168" y="1.37154" width="0.104728" height="0.108248"/>
      </mask>
     <clipPath id="id3">
      <path d="M4.24775 1.3771l0.0168976 -0.00544882c0.0047126,0.000232283 0.00937008,0.00245276 0.0156929,0.00730709l0.00155118 0.00409449c-0.0153386,-0.00427165 -0.0351024,0.00104724 -0.0575984,0.0216142 0.00894094,-0.0150512 0.0162441,-0.0229961 0.0234567,-0.0275669zm0.0360748 0.0110591l0.00354331 0.00936614 -0.00263386 0.0046063c-0.0158858,0.00137795 -0.0352323,0.0114803 -0.0548228,0.0301378 -0.0114882,-0.00661417 -0.0126102,-0.0137638 -0.00901181,-0.0198622 0.00476378,-0.0080748 0.0180512,-0.0169409 0.031689,-0.0226457 0.00868504,-0.00363386 0.0214213,-0.00415748 0.0312362,-0.00160236zm-0.00475197 0.0238819l-0.0181417 0.0317362c-0.0110591,-0.00264567 -0.0210512,-0.00570472 -0.0260315,-0.0087126 0.0162992,-0.0132165 0.0315354,-0.0201339 0.0441732,-0.0230236zm-0.0205787 0.0359961l-0.000984252 0.00172441c-0.0139016,0.00120472 -0.0263307,0.00703937 -0.0389646,0.0212402 -0.00568504,-0.00568504 -0.00527165,-0.00845669 -0.002,-0.0152795 0.0021378,-0.00361417 0.00637008,-0.00877559 0.0130512,-0.0153622 0.00785827,0.00312992 0.0185551,0.00576772 0.0288976,0.00767717zm-0.00284646 0.00498425l-0.015185 0.026563c-0.00806299,-0.000437008 -0.0157598,-0.00241339 -0.0203268,-0.00721654 0.0113701,-0.0117559 0.0232835,-0.0172992 0.0355118,-0.0193465zm-0.0404331 -0.025815c-0.00267323,0.00979134 -0.00427165,0.0180118 -0.00297244,0.0285354 0.00322441,-0.00645276 0.00820079,-0.0126811 0.0129016,-0.0181811 -0.00544488,-0.00268898 -0.0102559,-0.0065 -0.00992913,-0.0103543z"/>
     </clipPath>
     <clipPath id="id4">
      <path d="M4.24775 1.3771l0.0168976 -0.00544882c0.0047126,0.000232283 0.00937008,0.00245276 0.0156929,0.00730709l0.00155118 0.00409449c-0.0153386,-0.00427165 -0.0351024,0.00104724 -0.0575984,0.0216142 0.00894094,-0.0150512 0.0162441,-0.0229961 0.0234567,-0.0275669zm0.0360748 0.0110591l0.00354331 0.00936614 -0.00263386 0.0046063c-0.0158858,0.00137795 -0.0352323,0.0114803 -0.0548228,0.0301378 -0.0114882,-0.00661417 -0.0126102,-0.0137638 -0.00901181,-0.0198622 0.00476378,-0.0080748 0.0180512,-0.0169409 0.031689,-0.0226457 0.00868504,-0.00363386 0.0214213,-0.00415748 0.0312362,-0.00160236zm-0.00475197 0.0238819l-0.0181417 0.0317362c-0.0110591,-0.00264567 -0.0210512,-0.00570472 -0.0260315,-0.0087126 0.0162992,-0.0132165 0.0315354,-0.0201339 0.0441732,-0.0230236zm-0.0205787 0.0359961l-0.000984252 0.00172441c-0.0139016,0.00120472 -0.0263307,0.00703937 -0.0389646,0.0212402 -0.00568504,-0.00568504 -0.00527165,-0.00845669 -0.002,-0.0152795 0.0021378,-0.00361417 0.00637008,-0.00877559 0.0130512,-0.0153622 0.00785827,0.00312992 0.0185551,0.00576772 0.0288976,0.00767717zm-0.00284646 0.00498425l-0.015185 0.026563c-0.00806299,-0.000437008 -0.0157598,-0.00241339 -0.0203268,-0.00721654 0.0113701,-0.0117559 0.0232835,-0.0172992 0.0355118,-0.0193465zm-0.0404331 -0.025815c-0.00267323,0.00979134 -0.00427165,0.0180118 -0.00297244,0.0285354 0.00322441,-0.00645276 0.00820079,-0.0126811 0.0129016,-0.0181811 -0.00544488,-0.00268898 -0.0102559,-0.0065 -0.00992913,-0.0103543z"/>
     </clipPath>
     <clipPath id="id5">
      <path d="M4.24775 1.3771l0.0168976 -0.00544882c0.0047126,0.000232283 0.00937008,0.00245276 0.0156929,0.00730709l0.00155118 0.00409449c-0.0153386,-0.00427165 -0.0351024,0.00104724 -0.0575984,0.0216142 0.00894094,-0.0150512 0.0162441,-0.0229961 0.0234567,-0.0275669zm0.0360748 0.0110591l0.00354331 0.00936614 -0.00263386 0.0046063c-0.0158858,0.00137795 -0.0352323,0.0114803 -0.0548228,0.0301378 -0.0114882,-0.00661417 -0.0126102,-0.0137638 -0.00901181,-0.0198622 0.00476378,-0.0080748 0.0180512,-0.0169409 0.031689,-0.0226457 0.00868504,-0.00363386 0.0214213,-0.00415748 0.0312362,-0.00160236zm-0.00475197 0.0238819l-0.0181417 0.0317362c-0.0110591,-0.00264567 -0.0210512,-0.00570472 -0.0260315,-0.0087126 0.0162992,-0.0132165 0.0315354,-0.0201339 0.0441732,-0.0230236zm-0.0205787 0.0359961l-0.000984252 0.00172441c-0.0139016,0.00120472 -0.0263307,0.00703937 -0.0389646,0.0212402 -0.00568504,-0.00568504 -0.00527165,-0.00845669 -0.002,-0.0152795 0.0021378,-0.00361417 0.00637008,-0.00877559 0.0130512,-0.0153622 0.00785827,0.00312992 0.0185551,0.00576772 0.0288976,0.00767717zm-0.00284646 0.00498425l-0.015185 0.026563c-0.00806299,-0.000437008 -0.0157598,-0.00241339 -0.0203268,-0.00721654 0.0113701,-0.0117559 0.0232835,-0.0172992 0.0355118,-0.0193465zm-0.0404331 -0.025815c-0.00267323,0.00979134 -0.00427165,0.0180118 -0.00297244,0.0285354 0.00322441,-0.00645276 0.00820079,-0.0126811 0.0129016,-0.0181811 -0.00544488,-0.00268898 -0.0102559,-0.0065 -0.00992913,-0.0103543z"/>
     </clipPath>
     <clipPath id="id6">
      <path d="M4.22429 1.40467c0.025626,-0.0234252 0.0477047,-0.0270709 0.0637362,-0.0192913 -0.0148346,-0.013122 -0.021315,-0.0157598 -0.0313898,-0.0124409 -0.0104173,0.00343701 -0.0197559,0.0105394 -0.0323465,0.0317323zm0.0282953 -0.0149055c-0.0136378,0.00570472 -0.0269252,0.0145709 -0.031689,0.0226457 -0.00359843,0.00609843 -0.00247638,0.013248 0.00901181,0.0198622 0.0290709,-0.0276811 0.0576063,-0.0365433 0.0750827,-0.0259882 -0.00361417,-0.00535827 -0.00638583,-0.00965354 -0.012252,-0.0143228 -0.00933858,-0.00634646 -0.0284331,-0.00709843 -0.0401535,-0.00219685zm-0.0324528 0.0826063c0.00967323,0.0101693 0.0333858,0.00766929 0.0448701,0.00472441 0.00904331,-0.00231496 0.0234094,-0.0085315 0.0366417,-0.0208819 -0.0281969,-0.00538189 -0.0562008,-0.0100197 -0.0815118,0.0161575zm-0.00159055 -0.00136614c0.0158701,-0.0178386 0.0314213,-0.0224803 0.0499764,-0.021315 -0.0129961,-0.00187008 -0.0284685,-0.00516142 -0.0389252,-0.00932677 -0.0066811,0.00658661 -0.0109134,0.011748 -0.0130512,0.0153622 -0.00327165,0.00682283 -0.00368504,0.00959449 0.002,0.0152795zm0.0882559 -0.0196614c0.0122598,-0.016063 0.0121929,-0.0218465 0.0025315,-0.0371693 -0.0106102,-0.00686614 -0.0401772,-0.00688189 -0.0744331,0.0208937 0.0132874,0.00802362 0.0622323,0.0164331 0.0719016,0.0162756zm-0.0915866 -0.0241339c-0.00267323,0.00979134 -0.00427165,0.0180118 -0.00297244,0.0285354 0.00322441,-0.00645276 0.00820079,-0.0126811 0.0129016,-0.0181811 -0.00544488,-0.00268898 -0.0102559,-0.0065 -0.00992913,-0.0103543z"/>
     </clipPath>
  <linearGradient id="id7" gradientUnits="userSpaceOnUse" x1="4.20931" y1="1.43991" x2="4.33617" y2="1.41762">
   <stop offset="0" style="stop-color:#476CCE"/>
   <stop offset="0.478431" style="stop-color:#2CA9C8"/>
   <stop offset="1" style="stop-color:#10E6C2"/>
  </linearGradient>
  <linearGradient id="id8" gradientUnits="userSpaceOnUse" xlink:href="#id7" x1="3.78944" y1="1.49018" x2="4.4229" y2="1.37886">
  </linearGradient>
 </defs>
 <g id="Layer_x0020_1">
  <metadata id="CorelCorpID_0Corel-Layer"/>
  <g id="_310284368">
   <path id="_310283840" class="fil0" d="M4.22429 1.40467c0.025626,-0.0234252 0.0477047,-0.0270709 0.0637362,-0.0192913 -0.0148346,-0.013122 -0.021315,-0.0157598 -0.0313898,-0.0124409 -0.0104173,0.00343701 -0.0197559,0.0105394 -0.0323465,0.0317323zm0.0282953 -0.0149055c-0.0136378,0.00570472 -0.0269252,0.0145709 -0.031689,0.0226457 -0.00359843,0.00609843 -0.00247638,0.013248 0.00901181,0.0198622 0.0290709,-0.0276811 0.0576063,-0.0365433 0.0750827,-0.0259882 -0.00361417,-0.00535827 -0.00638583,-0.00965354 -0.012252,-0.0143228 -0.00933858,-0.00634646 -0.0284331,-0.00709843 -0.0401535,-0.00219685zm-0.0324528 0.0826063c0.00967323,0.0101693 0.0333858,0.00766929 0.0448701,0.00472441 0.00904331,-0.00231496 0.0234094,-0.0085315 0.0366417,-0.0208819 -0.0281969,-0.00538189 -0.0562008,-0.0100197 -0.0815118,0.0161575zm-0.00159055 -0.00136614c0.0158701,-0.0178386 0.0314213,-0.0224803 0.0499764,-0.021315 -0.0129961,-0.00187008 -0.0284685,-0.00516142 -0.0389252,-0.00932677 -0.0066811,0.00658661 -0.0109134,0.011748 -0.0130512,0.0153622 -0.00327165,0.00682283 -0.00368504,0.00959449 0.002,0.0152795zm0.0882559 -0.0196614c0.0122598,-0.016063 0.0121929,-0.0218465 0.0025315,-0.0371693 -0.0106102,-0.00686614 -0.0401772,-0.00688189 -0.0744331,0.0208937 0.0132874,0.00802362 0.0622323,0.0164331 0.0719016,0.0162756zm-0.0915866 -0.0241339c-0.00267323,0.00979134 -0.00427165,0.0180118 -0.00297244,0.0285354 0.00322441,-0.00645276 0.00820079,-0.0126811 0.0129016,-0.0181811 -0.00544488,-0.00268898 -0.0102559,-0.0065 -0.00992913,-0.0103543z"/>
   <g style="clip-path:url(#id0)">
    <g>
     <path id="_47583441" class="fil1" style="mask:url(#id1)" d="M4.22429 1.40467c0.025626,-0.0234252 0.0477047,-0.0270709 0.0637362,-0.0192913 -0.0148346,-0.013122 -0.021315,-0.0157598 -0.0313898,-0.0124409 -0.0104173,0.00343701 -0.0197559,0.0105394 -0.0323465,0.0317323zm0.0282953 -0.0149055c-0.0136378,0.00570472 -0.0269252,0.0145709 -0.031689,0.0226457 -0.00359843,0.00609843 -0.00247638,0.013248 0.00901181,0.0198622 0.0290709,-0.0276811 0.0576063,-0.0365433 0.0750827,-0.0259882 -0.00361417,-0.00535827 -0.00638583,-0.00965354 -0.012252,-0.0143228 -0.00933858,-0.00634646 -0.0284331,-0.00709843 -0.0401535,-0.00219685zm-0.0324528 0.0826063c0.00967323,0.0101693 0.0333858,0.00766929 0.0448701,0.00472441 0.00904331,-0.00231496 0.0234094,-0.0085315 0.0366417,-0.0208819 -0.0281969,-0.00538189 -0.0562008,-0.0100197 -0.0815118,0.0161575zm-0.00159055 -0.00136614c0.0158701,-0.0178386 0.0314213,-0.0224803 0.0499764,-0.021315 -0.0129961,-0.00187008 -0.0284685,-0.00516142 -0.0389252,-0.00932677 -0.0066811,0.00658661 -0.0109134,0.011748 -0.0130512,0.0153622 -0.00327165,0.00682283 -0.00368504,0.00959449 0.002,0.0152795zm0.0882559 -0.0196614c0.0122598,-0.016063 0.0121929,-0.0218465 0.0025315,-0.0371693 -0.0106102,-0.00686614 -0.0401772,-0.00688189 -0.0744331,0.0208937 0.0132874,0.00802362 0.0622323,0.0164331 0.0719016,0.0162756zm-0.0915866 -0.0241339c-0.00267323,0.00979134 -0.00427165,0.0180118 -0.00297244,0.0285354 0.00322441,-0.00645276 0.00820079,-0.0126811 0.0129016,-0.0181811 -0.00544488,-0.00268898 -0.0102559,-0.0065 -0.00992913,-0.0103543z"/>
    </g>
    <g style="clip-path:url(#id3)">
    </g>
    <g style="clip-path:url(#id4)">
     <image id="_200708416" transform="matrix(1 0 0 1 0.0532008 -4.35754)" x="4.13386" y="5.72548" width="0.12402" height="0.12098" xlink:href="2.svg_Images\2.svg_ImgID1.png"/>
    </g>
    <g style="clip-path:url(#id5)">
    </g>
    <g style="clip-path:url(#id6)">
    </g>
   </g>
   <path class="fil2" d="M4.22429 1.40467c0.025626,-0.0234252 0.0477047,-0.0270709 0.0637362,-0.0192913 -0.0148346,-0.013122 -0.021315,-0.0157598 -0.0313898,-0.0124409 -0.0104173,0.00343701 -0.0197559,0.0105394 -0.0323465,0.0317323zm0.0282953 -0.0149055c-0.0136378,0.00570472 -0.0269252,0.0145709 -0.031689,0.0226457 -0.00359843,0.00609843 -0.00247638,0.013248 0.00901181,0.0198622 0.0290709,-0.0276811 0.0576063,-0.0365433 0.0750827,-0.0259882 -0.00361417,-0.00535827 -0.00638583,-0.00965354 -0.012252,-0.0143228 -0.00933858,-0.00634646 -0.0284331,-0.00709843 -0.0401535,-0.00219685zm-0.0324528 0.0826063c0.00967323,0.0101693 0.0333858,0.00766929 0.0448701,0.00472441 0.00904331,-0.00231496 0.0234094,-0.0085315 0.0366417,-0.0208819 -0.0281969,-0.00538189 -0.0562008,-0.0100197 -0.0815118,0.0161575zm-0.00159055 -0.00136614c0.0158701,-0.0178386 0.0314213,-0.0224803 0.0499764,-0.021315 -0.0129961,-0.00187008 -0.0284685,-0.00516142 -0.0389252,-0.00932677 -0.0066811,0.00658661 -0.0109134,0.011748 -0.0130512,0.0153622 -0.00327165,0.00682283 -0.00368504,0.00959449 0.002,0.0152795zm0.0882559 -0.0196614c0.0122598,-0.016063 0.0121929,-0.0218465 0.0025315,-0.0371693 -0.0106102,-0.00686614 -0.0401772,-0.00688189 -0.0744331,0.0208937 0.0132874,0.00802362 0.0622323,0.0164331 0.0719016,0.0162756zm-0.0915866 -0.0241339c-0.00267323,0.00979134 -0.00427165,0.0180118 -0.00297244,0.0285354 0.00322441,-0.00645276 0.00820079,-0.0126811 0.0129016,-0.0181811 -0.00544488,-0.00268898 -0.0102559,-0.0065 -0.00992913,-0.0103543z"/>
   <path id="_310284176" class="fil3" d="M3.77473 1.40312l-0.00194094 0.000783465 8.66142e-005 0.0689567 0.0210236 0 4.72441e-005 -0.0588661 0 -0.00126378 0.00106693 -0.000574803c0.000732283,-0.000393701 0.00150787,-0.000759843 0.00229921,-0.00108268l0 -3.93701e-006c0.000799213,-0.000330709 0.00164567,-0.000641732 0.00251575,-0.000909449 0.000755906,-0.00026378 0.0015315,-0.000511811 0.00231496,-0.000724409l7.87402e-006 0c0.000775591,-0.000208661 0.00165354,-0.00042126 0.00262205,-0.00061811l3.93701e-006 -1.1811e-005c0.000905512,-0.000185039 0.00188189,-0.000330709 0.00291339,-0.000429134 0.00104724,-9.84252e-005 0.0020748,-0.000153543 0.00305512,-0.000153543 0.00316535,0 0.00561811,0.000834646 0.00735827,0.0025l7.87402e-006 -3.93701e-006c0.000807087,0.000775591 0.0015,0.00168898 0.00205906,0.00274409 0.000531496,0.000996063 0.000940945,0.00209449 0.0012126,0.00327559l-7.87402e-006 0c0.000259843,0.00109843 0.000444882,0.00228346 0.000559055,0.00354331 0.000106299,0.00124016 0.000145669,0.00258661 0.00011811,0.00401969 -4.72441e-005,0.00255512 -7.87402e-005,0.00542126 -8.26772e-005,0.00858661l-3.93701e-005 0.0399724 0.0210197 0 5.11811e-005 -0.0588661 0 -0.00127559 0.00106693 -0.000570866c0.000692913,-0.000374016 0.0014685,-0.000740157 0.00229528,-0.00108268l1.5748e-005 0c0.000834646,-0.000338583 0.00167323,-0.000649606 0.00249606,-0.000905512 0.00076378,-0.00026378 0.00153543,-0.000511811 0.00232283,-0.000724409 0.000751969,-0.000204724 0.00164173,-0.000417323 0.00262598,-0.00061811l3.93701e-006 -1.1811e-005c0.000901575,-0.000185039 0.00187795,-0.000330709 0.00290945,-0.000429134 0.00104724,-9.84252e-005 0.0020748,-0.000153543 0.00305906,-0.000153543 0.00314567,0 0.00561811,0.000818898 0.00739764,0.00245669 0.000866142,0.000791339 0.00158268,0.00172441 0.00214173,0.00278346 0.000535433,0.00100394 0.000933071,0.00212205 0.00118504,0.00333071 0.000228346,0.0010748 0.000389764,0.00224016 0.000484252,0.00348819 9.44882e-005,0.00120079 0.000122047,0.00251575 9.84252e-005,0.00393307l-6.69291e-005 0.00420866 7.87402e-006 0 -1.9685e-005 0.00447244 -4.33071e-005 0.0399646 0.0210197 0 4.33071e-005 -0.0487795c0,-0.00279134 -0.000188976,-0.00591339 -0.000582677,-0.00935039 -0.000181102,-0.00156299 -0.00053937,-0.00309843 -0.00107874,-0.00457874 -0.000531496,-0.00144882 -0.00125197,-0.00287008 -0.00214567,-0.00424016 -0.00084252,-0.0012874 -0.00196063,-0.0025 -0.00332283,-0.00360236 -0.0014252,-0.00115748 -0.00315354,-0.00223228 -0.00516535,-0.00320079l3.93701e-006 -3.93701e-006c-0.00197244,-0.000948819 -0.00439764,-0.00167323 -0.00725984,-0.00216535 -0.00296457,-0.000503937 -0.0063937,-0.00076378 -0.0102835,-0.00076378 -0.00568898,0 -0.0108661,0.000448819 -0.0155315,0.00133071 -0.00227953,0.000429134 -0.00453937,0.000897638 -0.00675984,0.0013937 -0.00217323,0.000488189 -0.00417323,0.000980315 -0.00598819,0.0014685l-0.00175984 -0.000192913c-0.00107087,-0.000511811 -0.00227165,-0.001 -0.00358268,-0.00146457l-3.93701e-006 7.87402e-006c-0.00138583,-0.000488189 -0.00285827,-0.000937008 -0.00438976,-0.00133858l0 1.1811e-005c-0.00309055,-0.000807087 -0.00676772,-0.00121654 -0.0110315,-0.00121654 -0.00301969,0 -0.00590945,0.000110236 -0.00864567,0.000314961 -0.0027874,0.000212598 -0.00544094,0.000531496 -0.00793307,0.000944882 -0.00256299,0.000429134 -0.00495276,0.000885827 -0.00715748,0.00135827 -0.0021063,0.000456693 -0.00412205,0.000956693 -0.00604724,0.0015 -0.00190551,0.000543307 -0.0035748,0.00104331 -0.00496063,0.0015 -0.0014252,0.000464567 -0.00265748,0.000909449 -0.00368898,0.00132677zm0.635929 0.0174252c0,-0.000811024 -0.000102362,-0.00144882 -0.000307087,-0.00189764l0 0c-9.84252e-005,-0.000212598 -0.000240157,-0.00038189 -0.000409449,-0.000488189 -0.000511811,-0.000330709 -0.00110236,-0.000586614 -0.00174803,-0.000759843l0 -3.93701e-006c-0.00073622,-0.000192913 -0.00156299,-0.000299213 -0.00245276,-0.000299213l-0.00366929 3.93701e-006c-0.00242126,3.93701e-006 -0.00388189,0.000307087 -0.0045748,0.00105906 -0.000744094,0.000818898 -0.00101969,0.00249606 -0.00102362,0.00517717l0 0.00348031 0.00194094 -0.000137795c0.00061811,-4.72441e-005 0.00118898,-9.84252e-005 0.0016811,-0.000149606l1.1811e-005 0c0.000472441,-5.11811e-005 0.00100787,-0.000122047 0.0016063,-0.000212598l1.1811e-005 0 0.00240945 -0.000350394c0.00105906,-0.00026378 0.00200787,-0.000570866 0.00283465,-0.000917323 0.000854331,-0.000362205 0.00164961,-0.000795276 0.00236614,-0.00128346 0.000417323,-0.000283465 0.000740157,-0.000665354 0.000944882,-0.00112598 0.000248031,-0.00053937 0.000377953,-0.00124803 0.000377953,-0.00209449zm-0.00524016 0.0522992l-0.000708661 0 -0.00402756 0 0 0 -6.69291e-005 1.5748e-005c-0.00188976,0 -0.0037874,-7.48031e-005 -0.00568898,-0.000220472 -0.0018189,-0.000141732 -0.00367323,-0.000362205 -0.00554724,-0.000661417 -0.00198819,-0.000314961 -0.0038622,-0.000779528 -0.00559843,-0.00138583 -0.00181496,-0.000637795 -0.0035315,-0.00142913 -0.00512205,-0.00238189l0 -3.93701e-006c-0.00169291,-0.00100394 -0.00321654,-0.00220472 -0.00455906,-0.00359055 -0.00133858,-0.00137402 -0.00251575,-0.00295276 -0.00352362,-0.00472047l0 -1.1811e-005c-0.0010315,-0.00180709 -0.00180315,-0.00385433 -0.00229528,-0.00611417 -0.000464567,-0.0021378 -0.000700787,-0.00449606 -0.00069685,-0.00706693l1.9685e-005 -0.0224488c7.87402e-006,-0.0094252 0.00408661,-0.0158661 0.00972441,-0.0201929 0.00806693,-0.00617717 0.0193386,-0.00787795 0.0259882,-0.00787795 0.00205512,0 0.0041811,5.90551e-005 0.00634646,0.000169291 0.00211417,0.000114173 0.00412205,0.000279528 0.00600787,0.000492126 0.00200787,0.000228346 0.00396063,0.000606299 0.00584252,0.00112598l0 -1.1811e-005c0.00185827,0.000507874 0.00364173,0.00117717 0.00533071,0.00199606l3.93701e-006 -7.87402e-006c0.00174803,0.00084252 0.00335827,0.00188976 0.0048189,0.00312598 0.00146457,0.00124016 0.00276772,0.00266929 0.0038937,0.00426772 0.00117717,0.00166535 0.00208661,0.00359055 0.00272835,0.00575591 0.000582677,0.00198425 0.000952756,0.00423228 0.00109449,0.00672835l1.1811e-005 0c0.000145669,0.00225197 2.3622e-005,0.0043622 -0.000346457,0.00630315l3.93701e-006 1.1811e-005c-0.00038189,0.00198031 -0.00104331,0.00379921 -0.00197638,0.00542913 -0.000877953,0.0015315 -0.00190157,0.00292913 -0.00306299,0.00417323l-1.5748e-005 0c-0.00118504,0.00127165 -0.00251181,0.00240551 -0.0039685,0.00338189 -0.00142126,0.000952756 -0.00294094,0.00181102 -0.00455512,0.00255906l-1.1811e-005 0c-0.00158661,0.00073622 -0.00329921,0.00138189 -0.00511811,0.00192913l3.93701e-006 1.1811e-005c-0.00175591,0.000535433 -0.00350394,0.00101181 -0.00523228,0.00142126 -0.00175197,0.000417323 -0.00350787,0.000779528 -0.00525197,0.00108661l-2.75591e-005 0 -0.00225591 0.00038189 -3.54331e-005 1.5748e-005 -0.00244488 0.00038189 -1.5748e-005 0 -0.00253543 0.00034252 0 3.93701e-006c-0.000972441,0.000129921 -0.00176378,0.000224409 -0.00242913,0.000299213l-1.5748e-005 0 -0.00214567 0.000224409 -6.69291e-005 1.1811e-005 -0.00130709 0.000114173 -1.1811e-005 0.00378346c0,0.00198031 0.00185433,0.00574803 0.00479528,0.00593701 0.000665354,3.93701e-005 0.000374016,7.08661e-005 0.000937008,7.48031e-005l0.00311417 3.54331e-005 0 0.0151063zm-0.460996 -0.0531654c0,-0.00298425 -0.000980315,-0.00511024 -0.00293307,-0.0063622 -0.00195669,-0.00126378 -0.00429134,-0.00189764 -0.00699606,-0.00188976l-0.00404331 0c-0.00742913,7.87402e-006 -0.00952756,0.00252756 -0.0095315,0.0102008l-1.1811e-005 0.00854724c0.000744094,0 0.00174803,-4.72441e-005 0.00300394,-0.000141732 0.00125984,-9.05512e-005 0.00255906,-0.000188976 0.00392126,-0.000271654 0.00135827,-9.44882e-005 0.00265354,-0.00023622 0.00391732,-0.000425197 0.00125984,-0.000185039 0.0022126,-0.000326772 0.00286614,-0.000413386 0.0027126,-0.00065748 0.00501575,-0.0016378 0.00693307,-0.00294882 0.00191339,-0.00130709 0.00287008,-0.00340157 0.00287402,-0.00629528zm-0.0126024 0.0442756l0.000389764 0 0 0.00890551 -0.00307087 0 -4.33071e-005 0 -3.93701e-005 0 -4.72441e-005 0 -3.93701e-005 0 -4.33071e-005 0 -3.93701e-005 0 -4.33071e-005 0c-0.00400787,0 -0.00792913,-0.00030315 -0.0117559,-0.000913386 -0.00382283,-0.000602362 -0.00723228,-0.00179528 -0.0102087,-0.00356693 -0.00299213,-0.00177953 -0.00539764,-0.00425984 -0.00720866,-0.00742126 -0.00180315,-0.00316142 -0.00271654,-0.00733465 -0.0027126,-0.0124528l1.9685e-005 -0.0247402c2.75591e-005,-0.0227913 0.0245748,-0.0275906 0.0359843,-0.0275906 0.00466929,0 0.00905512,0.000232283 0.0131575,0.00069685 0.00410236,0.000472441 0.00774409,0.0014685 0.0109173,0.003 0.00317323,0.00155118 0.00575591,0.00374409 0.00775984,0.00658268 0.00200787,0.00284252 0.00314567,0.00669685 0.00341339,0.0115433 0.000283465,0.00438583 -0.00042126,0.00805512 -0.0021063,0.0109843 -0.0016811,0.00294488 -0.00394488,0.00536614 -0.00679134,0.00728346 -0.00284252,0.00190945 -0.00611024,0.00342126 -0.00980315,0.00454724 -0.00368504,0.00112205 -0.00738583,0.00200394 -0.011122,0.00265748 -0.00159055,0.000283465 -0.0033189,0.000559055 -0.0051811,0.000846457 -0.00187008,0.000271654 -0.00364173,0.000507874 -0.00532283,0.000688976 -0.0016811,0.000188976 -0.0031378,0.000330709 -0.00440551,0.000433071 -0.00125591,8.26772e-005 -0.00207874,0.000129921 -0.00244488,0.000129921l-7.87402e-006 0.00859055c-7.87402e-006,0.00224016 0.000224409,0.00401575 0.000688976,0.0053189 0.00046063,0.00130709 0.00119291,0.00229134 0.00216535,0.00294094 0.000988189,0.000645669 0.00219685,0.00107874 0.00364173,0.00125984 0.00122047,0.000149606 0.0026378,0.000244094 0.00422441,0.000275591l7.48031e-005 0zm0.0664213 -0.0539724l-2.75591e-005 0.0203307 -7.87402e-006 0.0151063 -7.87402e-006 0.00842913c0,0.00107874 4.72441e-005,0.00203543 0.00015748,0.00285827 0.000102362,0.00080315 0.00026378,0.00150787 0.000464567,0.00209055l3.93701e-006 0c0.000204724,0.000559055 0.00046063,0.00105512 0.000759843,0.00146063l0 3.93701e-006c0.000287402,0.000389764 0.000629921,0.000720472 0.00100394,0.000972441 0.000417323,0.000275591 0.000901575,0.000507874 0.00143307,0.000692913l3.93701e-006 0c0.000531496,0.000181102 0.00112205,0.000318898 0.00175984,0.000401575l0 -3.93701e-006c0.00107874,0.000129921 0.00654331,0.000224409 0.00872835,0.000255906l0.000570866 1.1811e-005 0.000870079 1.1811e-005 0 0.000862205 0 0.00862992 -3.93701e-006 0.000614173 -0.000614173 3.93701e-005c-0.000389764,1.9685e-005 -0.00148819,4.33071e-005 -0.00274803,6.29921e-005l-0.00524016 4.72441e-005c-0.00198425,0 -0.00395276,-7.87402e-005 -0.00590157,-0.000228346 -0.00193307,-0.000145669 -0.00385827,-0.000377953 -0.00575984,-0.000681102 -0.0019252,-0.000299213 -0.00374803,-0.000755906 -0.00546063,-0.00135433 -0.00172835,-0.000602362 -0.00335827,-0.0013622 -0.00487008,-0.00225984 -0.0015315,-0.000905512 -0.00292913,-0.00200787 -0.00416142,-0.00328346 -0.00123228,-0.00126772 -0.0023189,-0.00271654 -0.00324409,-0.00433858 -0.000937008,-0.0016378 -0.00164567,-0.00352756 -0.00211024,-0.00565354 -0.000456693,-0.00208661 -0.000681102,-0.0044252 -0.000677165,-0.00698031l7.08661e-005 -0.051248 0 -0.000653543 0.000661417 0 0.0234843 0 0.000885827 0 0 0.000874016 0 0.00556693 0.0148661 0 0.000885827 0 0 0.000877953 -7.87402e-006 0.00866142 -3.93701e-006 0.00065748 -0.00065748 0 -0.0150984 0 -7.87402e-006 -0.00283465zm0.0437835 0.0390039c0,0.00119685 0.000185039,0.00220866 0.000555118,0.00300787l0 7.87402e-006c0.000318898,0.00069685 0.00080315,0.00125984 0.00143307,0.00166535l0 0c0.000775591,0.000496063 0.00164961,0.00088189 0.00260236,0.00114173 0.000964567,0.000255906 0.00203937,0.000389764 0.00320866,0.000389764 0.00151969,0 0.00290551,-3.54331e-005 0.00414567,-0.000110236l3.93701e-006 0c0.00127559,-7.87402e-005 0.00245669,-0.000192913 0.00351969,-0.000346457 0.00104331,-0.000145669 0.00199213,-0.000314961 0.0028189,-0.000496063l7.87402e-006 0c0.000444882,-9.44882e-005 0.000866142,-0.000200787 0.00125591,-0.000311024l1.1811e-005 -0.013685 -0.00103937 5.90551e-005 0 3.93701e-006 -0.00372835 0.00026378 -1.9685e-005 0 -3.54331e-005 0c-0.000641732,4.72441e-005 -0.00125984,0.000102362 -0.00183071,0.000161417l0 3.93701e-006 -0.00185433 0.000228346 -0.00216535 0.000326772 -3.93701e-006 0 -0.000492126 7.48031e-005c-0.00120079,0.000287402 -0.00232283,0.000653543 -0.00334252,0.00108661 -0.00102362,0.000429134 -0.0019685,0.000944882 -0.00282677,0.0015315 -0.00073622,0.000503937 -0.0012874,0.00115748 -0.00164961,0.00194488 -0.00038189,0.000834646 -0.000574803,0.00185827 -0.000574803,0.00305118zm0.00993701 -0.052748l0.00125591 0 0.000629921 -2.75591e-005 3.93701e-005 0 0.00134252 -2.75591e-005 3.14961e-005 -7.87402e-006c0.00196063,0 0.00391339,7.87402e-005 0.00585433,0.000228346 0.0018937,0.000141732 0.00379921,0.000366142 0.0056811,0.000669291 0.00194488,0.000307087 0.00378346,0.00076378 0.00549606,0.0013622 0.00174016,0.000606299 0.00338189,0.00137008 0.00490945,0.00227953l7.87402e-006 3.93701e-006 3.93701e-006 3.93701e-006c0.00157087,0.000925197 0.00299213,0.00204724 0.00425984,0.00335827l3.93701e-006 -3.93701e-006c0.00125591,0.00129528 0.0023622,0.00277559 0.00331102,0.00442913l3.93701e-006 0c0.000964567,0.00167717 0.00168898,0.00360236 0.00215354,0.00576772 0.000456693,0.00209843 0.000685039,0.00444488 0.000681102,0.00701181l-4.33071e-005 0.0457165 -3.93701e-006 0.00096063 -0.000897638 0.00026378 -0.00247638 0.000732283 0 3.93701e-006c-0.000807087,0.000240157 -0.00183858,0.000511811 -0.00307874,0.000795276 -0.00120472,0.000279528 -0.00255906,0.000566929 -0.00404724,0.000854331 -0.00150787,0.000295276 -0.00319685,0.000574803 -0.00504331,0.000834646 -0.00182283,0.000255906 -0.0038189,0.000503937 -0.00596457,0.000724409 -0.00214961,0.000224409 -0.0044252,0.000401575 -0.00682283,0.000515748l-7.87402e-006 0c-0.00244488,0.000114173 -0.00495276,0.000173228 -0.00751181,0.000173228 -0.00452362,0 -0.00879528,-0.000232283 -0.0128071,-0.000688976 -0.00205118,-0.000228346 -0.004,-0.000602362 -0.00582677,-0.00110236 -0.00183071,-0.000503937 -0.00357087,-0.00116142 -0.00520079,-0.00194882 -0.00167323,-0.000811024 -0.00318898,-0.00179528 -0.00453937,-0.00294094 -0.0013622,-0.00114961 -0.00257874,-0.00248425 -0.00362598,-0.00398031 -0.00107087,-0.00152362 -0.00191732,-0.00331102 -0.00251575,-0.00534252 -0.000574803,-0.00193701 -0.000925197,-0.00414567 -0.00106299,-0.00659449l-7.87402e-006 0c-0.000145669,-0.00222441 -3.93701e-005,-0.00427953 0.000322835,-0.00615748l-3.93701e-006 -3.93701e-006c0.000362205,-0.00188583 0.000992126,-0.00361024 0.00187402,-0.00514961 0.000850394,-0.00148031 0.00185433,-0.00285433 0.00300787,-0.00408661 0.00115748,-0.00124016 0.00246063,-0.00234646 0.00388976,-0.00330709 0.00141339,-0.000944882 0.00293701,-0.00180709 0.0045748,-0.00256693l3.93701e-006 0c0.00162992,-0.000751969 0.0033622,-0.00141339 0.00517323,-0.00196457 0.0017874,-0.00053937 0.00359449,-0.00103543 0.00541339,-0.0014685 0.00181496,-0.000429134 0.00363386,-0.000807087 0.00544882,-0.00112205l7.87402e-006 0 0.00242913 -0.000413386 2.3622e-005 -7.87402e-006 0.00254331 -0.000389764 1.1811e-005 0 0.00262598 -0.000374016 1.9685e-005 -3.93701e-006 0.00248031 -0.000314961 3.54331e-005 0 0.00224016 -0.000224409 1.9685e-005 -7.87402e-006 0.00200394 -0.000165354 3.14961e-005 0 0.00114961 -7.48031e-005 3.93701e-006 -0.0070315c3.93701e-006,-0.00103543 -4.33071e-005,-0.00194094 -0.000145669,-0.00269685l0 -7.87402e-006c-9.44882e-005,-0.000724409 -0.00023622,-0.00135827 -0.000425197,-0.00187795l0 -7.87402e-006c-0.000165354,-0.000456693 -0.000374016,-0.000866142 -0.00061811,-0.00119685l0 -3.93701e-006c-0.000212598,-0.000291339 -0.000464567,-0.00053937 -0.000748031,-0.000724409l-7.87402e-006 -7.87402e-006c-0.000334646,-0.000220472 -0.000728346,-0.000417323 -0.00116929,-0.000566929 -0.000476378,-0.000165354 -0.00101181,-0.000287402 -0.00158661,-0.000358268 -0.000551181,-7.08661e-005 -0.00116535,-0.000133858 -0.00184252,-0.000173228l-3.93701e-006 0c-0.000692913,-4.33071e-005 -0.00139764,-7.48031e-005 -0.00209843,-7.87402e-005l-0.000866142 -7.87402e-006 0 -0.0114803zm0.297835 0.0436654l-1.1811e-005 0.0161457 -1.1811e-005 0.0142835 0 0.00252756 -0.00254724 0 -0.022626 0 -0.00341732 0 3.93701e-006 -0.00338189 5.11811e-005 -0.0477559 3.93701e-006 0c-3.93701e-006,-0.00261811 0.00023622,-0.00500787 0.000704724,-0.00715354l-3.93701e-006 -1.1811e-005c0.000484252,-0.00220079 0.00122835,-0.00417323 0.00222047,-0.00590157 0.000968504,-0.00168504 0.00209449,-0.00319291 0.0033622,-0.00449213l7.87402e-006 3.93701e-006c0.00130315,-0.00133858 0.00274409,-0.00247638 0.00429921,-0.0033937l3.93701e-006 3.93701e-006c0.00152362,-0.000905512 0.00318504,-0.00167717 0.0049685,-0.00229528 0.00175591,-0.000614173 0.00362992,-0.00108268 0.00559843,-0.0013937 0.00194882,-0.000307087 0.00385827,-0.00053937 0.0057126,-0.000685039 0.00195276,-0.000149606 0.00390157,-0.000224409 0.00584252,-0.000224409l0.00509843 5.11811e-005c0.00129134,1.5748e-005 0.00239764,3.93701e-005 0.00274803,6.29921e-005l0.0032126 0.000220472 3.93701e-006 0.00314961 0 0.0083189 0 0.00248819 -0.00252756 2.3622e-005c-0.000929134,7.87402e-006 -0.00372047,4.72441e-005 -0.00600787,0.000110236 -0.00124409,3.14961e-005 -0.00231102,7.87402e-005 -0.00271654,0.000125984l0 -3.93701e-006c-0.000468504,5.90551e-005 -0.00092126,0.000169291 -0.00133858,0.000311024l-3.93701e-006 -3.93701e-006c-0.000358268,0.000122047 -0.000688976,0.000287402 -0.000968504,0.000472441l3.93701e-006 3.93701e-006c-0.000244094,0.000161417 -0.00046063,0.000366142 -0.000625984,0.000590551l7.87402e-006 7.87402e-006c-0.000212598,0.000287402 -0.000389764,0.000622047 -0.000515748,0.000984252l0 1.1811e-005c-0.00015748,0.000444882 -0.000283465,0.000996063 -0.000370079,0.00162992l3.93701e-006 1.1811e-005c-9.44882e-005,0.000704724 -0.000145669,0.00154724 -0.000145669,0.00249213l-7.87402e-006 0.00811811 -1.1811e-005 0.0145472zm-0.256161 -0.0361417l0.00284252 -0.00114961c0.000976378,-0.000393701 0.00215354,-0.000818898 0.00350787,-0.00126378 0.00137795,-0.000444882 0.00289764,-0.000913386 0.0045315,-0.00137795l3.93701e-006 1.1811e-005c0.00172047,-0.000488189 0.00358661,-0.000952756 0.00559843,-0.00138583 0.00201575,-0.000433071 0.00419291,-0.000846457 0.00651181,-0.00123228 0.0023937,-0.000401575 0.00485827,-0.00069685 0.00738583,-0.000889764 0.0025748,-0.000192913 0.00524409,-0.000299213 0.00797244,-0.000299213 0.00416142,0 0.00781496,0.000413386 0.0109409,0.00122835 0.00146457,0.000385827 0.00288976,0.000818898 0.00426772,0.00130315l0 -3.93701e-006c0.00100394,0.000350394 0.00196063,0.000728346 0.00285827,0.00112598 0.00149606,-0.000393701 0.00305512,-0.000771654 0.00466142,-0.00113386 0.00183071,-0.000409449 0.00387008,-0.000830709 0.00612598,-0.00125591 0.00225197,-0.000425197 0.0045748,-0.000744094 0.00695276,-0.000948819 0.0024252,-0.000204724 0.00494882,-0.000314961 0.00756693,-0.000314961 0.0036811,0 0.00697638,0.000255906 0.00987008,0.000748031 0.00298425,0.000507874 0.00557874,0.00129921 0.00775591,0.00235039 0.00214961,0.00103543 0.0040315,0.00220866 0.00562205,0.0035 0.00165748,0.00134252 0.00301969,0.00283071 0.0040748,0.00443701 0.00100787,0.00154331 0.0018189,0.00315354 0.00242913,0.00482677l-3.93701e-006 0c0.000602362,0.00165748 0.00100787,0.00337402 0.00120866,0.00512205 0.000192913,0.00170079 0.000330709,0.00324016 0.000417323,0.00459843 9.05512e-005,0.00144488 0.000133858,0.00283858 0.000133858,0.00416929l-3.93701e-005 0.0449961 0 0.00193701 -0.00194882 0 -0.0229724 0 -0.00261811 0 3.93701e-006 -0.00259055 3.54331e-005 -0.0378346 -3.93701e-006 -7.87402e-006 1.9685e-005 -0.00402362 7.87402e-006 -1.5748e-005 5.51181e-005 -0.0036811 -3.93701e-006 -1.9685e-005c2.3622e-005,-0.00108661 0,-0.00211024 -7.48031e-005,-0.00305512 -7.48031e-005,-0.000913386 -0.000188976,-0.00175197 -0.000346457,-0.0025l0 -1.9685e-005c-0.000129921,-0.000625984 -0.000318898,-0.00116535 -0.000559055,-0.00161811 -0.000208661,-0.000389764 -0.000472441,-0.00073622 -0.000783465,-0.00101969 -0.000228346,-0.000212598 -0.000562992,-0.000389764 -0.000976378,-0.000515748 -0.000559055,-0.000169291 -0.00127559,-0.000255906 -0.00214173,-0.000255906 -0.00156693,0 -0.00305118,0.000141732 -0.00443307,0.000425197l0 -7.87402e-006c-0.000665354,0.000137795 -0.00135827,0.000307087 -0.00206299,0.000496063l0 3.93701e-006c-0.000673228,0.000185039 -0.00129528,0.000385827 -0.00185827,0.00057874l-6.69291e-005 2.75591e-005c-0.000700787,0.000220472 -0.00134252,0.000448819 -0.00189764,0.000677165l0 3.93701e-006 -0.000700787 0.000311024 -4.33071e-005 0.0527047 -3.93701e-006 0.00193701 -0.00194882 0 -0.0229724 0 -0.00261811 0 3.93701e-006 -0.00259055 3.14961e-005 -0.0378346 0 -7.87402e-006 1.9685e-005 -0.00388976 3.93701e-006 -1.5748e-005 5.51181e-005 -0.00374409 0 -1.9685e-005c1.9685e-005,-0.0011063 -7.87402e-006,-0.00214173 -9.05512e-005,-0.00308661 -8.26772e-005,-0.000929134 -0.000212598,-0.00176772 -0.000377953,-0.00248819l-1.1811e-005 -1.1811e-005c-0.000153543,-0.000653543 -0.000358268,-0.00122047 -0.000602362,-0.00167717 -0.000220472,-0.000417323 -0.000492126,-0.000775591 -0.000791339,-0.00106693 -0.00019685,-0.000185039 -0.0005,-0.000346457 -0.000889764,-0.000468504 -0.000551181,-0.000169291 -0.00125591,-0.000255906 -0.00211417,-0.000255906 -0.00156693,0 -0.00305118,0.000145669 -0.00442913,0.000425197 -0.00144882,0.000299213 -0.00276378,0.000661417 -0.00392126,0.00107087l-7.48031e-005 2.75591e-005c-0.000681102,0.000212598 -0.00132283,0.000444882 -0.00189764,0.000681102l-7.87402e-006 0 -0.000692913 0.000307087 -4.33071e-005 0.0527087 -3.93701e-006 0.00193701 -0.00194882 0 -0.0229724 0 -0.00261417 0 0 -0.00257874 -7.87402e-005 -0.0647244 -3.93701e-006 -0.00132283 0.00116929 -0.000472441z"/>
  </g>
 </g>
</svg>
