<?xml version="1.0" encoding="UTF-8"?>
<!DOCTYPE svg PUBLIC "-//W3C//DTD SVG 1.1//EN" "http://www.w3.org/Graphics/SVG/1.1/DTD/svg11.dtd">
<!-- Creator: CorelDRAW -->
<svg xmlns="http://www.w3.org/2000/svg" xml:space="preserve" width="300px" height="auto" style="shape-rendering:geometricPrecision; text-rendering:geometricPrecision; image-rendering:optimizeQuality; fill-rule:evenodd; clip-rule:evenodd"
viewBox="0 0 1.00333 0.166661"
 xmlns:xlink="http://www.w3.org/1999/xlink">
    xmlns="http://www.w3.org/2000/svg" xml:space="preserve" width="300px" height="auto" style="shape-rendering:geometricPrecision; text-rendering:geometricPrecision; image-rendering:optimizeQuality; fill-rule:evenodd; clip-rule:evenodd"
viewBox="0 0 2 0.666661"
 xmlns:xlink="http://www.w3.org/1999/xlink"
 <defs>
  <style type="text/css">
   <![CDATA[
    .fil2 {fill:none}
    .fil1 {fill:#8682AB}
    .fil0 {fill:url(#id7)}
    .fil3 {fill:url(#id8);fill-rule:nonzero}
   ]]>
  </style>
    <clipPath id="id0">
     <path d="M0.678913 0.0518425c0.0384409,-0.0351378 0.0715591,-0.0406063 0.0956063,-0.028937 -0.022252,-0.019685 -0.0319724,-0.0236417 -0.0470866,-0.0186614 -0.015626,0.00515354 -0.0296339,0.0158071 -0.0485197,0.0475984zm0.0424449 -0.0223583c-0.0204567,0.00855512 -0.0403898,0.0218543 -0.0475354,0.0339685 -0.00539764,0.00914567 -0.0037126,0.0198701 0.0135197,0.0297913 0.0436063,-0.0415197 0.0864094,-0.054815 0.112626,-0.0389803 -0.00542126,-0.00803937 -0.00957874,-0.0144803 -0.018378,-0.0214843 -0.0140079,-0.00951969 -0.0426535,-0.0106496 -0.0602323,-0.00329528zm-0.0486811 0.123909c0.0145118,0.015252 0.0500787,0.0115039 0.0673071,0.00708661 0.0135669,-0.00347244 0.0351142,-0.0127992 0.0549646,-0.0313228 -0.0422953,-0.0080748 -0.0843031,-0.0150315 -0.122272,0.0242362zm-0.00238583 -0.00205118c0.0238071,-0.0267559 0.0471339,-0.0337205 0.0749646,-0.0319724 -0.0194921,-0.00280315 -0.0427008,-0.00774016 -0.0583858,-0.0139882 -0.0100236,0.00987795 -0.0163701,0.017622 -0.0195787,0.0230433 -0.00490551,0.0102323 -0.00552756,0.0143898 0.003,0.0229173zm0.132386 -0.0294921c0.0183898,-0.0240945 0.0182913,-0.0327677 0.00379921,-0.055752 -0.0159173,-0.0102992 -0.0602677,-0.0103228 -0.111654,0.0313386 0.0199331,0.0120354 0.0933504,0.0246496 0.107854,0.0244134zm-0.137382 -0.0362008c-0.00400787,0.014689 -0.00640551,0.0270197 -0.00445669,0.0428031 0.00483465,-0.00967717 0.0122992,-0.0190197 0.0193504,-0.0272717 -0.00816535,-0.0040315 -0.0153819,-0.00974803 -0.0148937,-0.0155315z"/>
    </clipPath>
      <mask id="id1">
  <linearGradient id="id2" gradientUnits="userSpaceOnUse" x1="0.71187" y1="0.0703071" x2="0.765217" y2="0.0963543">
   <stop offset="0" style="stop-opacity:1; stop-color:white"/>
   <stop offset="0.588235" style="stop-opacity:0.501961; stop-color:white"/>
   <stop offset="1" style="stop-opacity:0; stop-color:white"/>
  </linearGradient>
       <rect style="fill:url(#id2)" x="0.660047" y="0.00219685" width="0.156996" height="0.162272"/>
      </mask>
     <clipPath id="id3">
      <path d="M0.714102 0.0104882l0.0253346 -0.00816535c0.00707087,0.000346457 0.014063,0.00366929 0.0235512,0.0109567l0.00232677 0.00614567c-0.0230079,-0.00640945 -0.0526535,0.00156693 -0.0864016,0.0324173 0.0134134,-0.0225787 0.0243701,-0.0344961 0.035189,-0.0413543zm0.0541063 0.0165866l0.0053189 0.0140551 -0.00394882 0.00690945c-0.0238268,0.00206693 -0.0528504,0.0172244 -0.0822362,0.0452047 -0.0172323,-0.00992126 -0.0189173,-0.0206457 -0.0135197,-0.0297913 0.00714567,-0.0121142 0.0270787,-0.0254134 0.0475354,-0.0339685 0.0130276,-0.00544882 0.032126,-0.00624016 0.0468504,-0.00240945zm-0.00712598 0.0358268l-0.0272087 0.0476063c-0.0165827,-0.00396457 -0.0315787,-0.00855906 -0.0390512,-0.0130709 0.0244488,-0.0198228 0.0473031,-0.0302047 0.0662598,-0.0345354zm-0.0308622 0.054l-0.00147638 0.00258268c-0.0208543,0.00180709 -0.0395,0.0105591 -0.0584528,0.0318583 -0.00852756,-0.00852756 -0.00790551,-0.012685 -0.003,-0.0229173 0.00320866,-0.00542126 0.00955512,-0.0131654 0.0195787,-0.0230433 0.0117913,0.00469685 0.0278307,0.00865354 0.0433504,0.0115197zm-0.00427165 0.00747244l-0.0227756 0.0398465c-0.0120945,-0.00065748 -0.0236417,-0.00362598 -0.0304961,-0.0108268 0.0170551,-0.0176378 0.0349252,-0.0259449 0.0532717,-0.0290197zm-0.0606535 -0.0387244c-0.00400787,0.014689 -0.00640551,0.0270197 -0.00445669,0.0428031 0.00483465,-0.00967717 0.0122992,-0.0190197 0.0193504,-0.0272717 -0.00816535,-0.0040315 -0.0153819,-0.00974803 -0.0148937,-0.0155315z"/>
     </clipPath>
     <clipPath id="id4">
      <path d="M0.714102 0.0104882l0.0253346 -0.00816535c0.00707087,0.000346457 0.014063,0.00366929 0.0235512,0.0109567l0.00232677 0.00614567c-0.0230079,-0.00640945 -0.0526535,0.00156693 -0.0864016,0.0324173 0.0134134,-0.0225787 0.0243701,-0.0344961 0.035189,-0.0413543zm0.0541063 0.0165866l0.0053189 0.0140551 -0.00394882 0.00690945c-0.0238268,0.00206693 -0.0528504,0.0172244 -0.0822362,0.0452047 -0.0172323,-0.00992126 -0.0189173,-0.0206457 -0.0135197,-0.0297913 0.00714567,-0.0121142 0.0270787,-0.0254134 0.0475354,-0.0339685 0.0130276,-0.00544882 0.032126,-0.00624016 0.0468504,-0.00240945zm-0.00712598 0.0358268l-0.0272087 0.0476063c-0.0165827,-0.00396457 -0.0315787,-0.00855906 -0.0390512,-0.0130709 0.0244488,-0.0198228 0.0473031,-0.0302047 0.0662598,-0.0345354zm-0.0308622 0.054l-0.00147638 0.00258268c-0.0208543,0.00180709 -0.0395,0.0105591 -0.0584528,0.0318583 -0.00852756,-0.00852756 -0.00790551,-0.012685 -0.003,-0.0229173 0.00320866,-0.00542126 0.00955512,-0.0131654 0.0195787,-0.0230433 0.0117913,0.00469685 0.0278307,0.00865354 0.0433504,0.0115197zm-0.00427165 0.00747244l-0.0227756 0.0398465c-0.0120945,-0.00065748 -0.0236417,-0.00362598 -0.0304961,-0.0108268 0.0170551,-0.0176378 0.0349252,-0.0259449 0.0532717,-0.0290197zm-0.0606535 -0.0387244c-0.00400787,0.014689 -0.00640551,0.0270197 -0.00445669,0.0428031 0.00483465,-0.00967717 0.0122992,-0.0190197 0.0193504,-0.0272717 -0.00816535,-0.0040315 -0.0153819,-0.00974803 -0.0148937,-0.0155315z"/>
     </clipPath>
     <clipPath id="id5">
      <path d="M0.714102 0.0104882l0.0253346 -0.00816535c0.00707087,0.000346457 0.014063,0.00366929 0.0235512,0.0109567l0.00232677 0.00614567c-0.0230079,-0.00640945 -0.0526535,0.00156693 -0.0864016,0.0324173 0.0134134,-0.0225787 0.0243701,-0.0344961 0.035189,-0.0413543zm0.0541063 0.0165866l0.0053189 0.0140551 -0.00394882 0.00690945c-0.0238268,0.00206693 -0.0528504,0.0172244 -0.0822362,0.0452047 -0.0172323,-0.00992126 -0.0189173,-0.0206457 -0.0135197,-0.0297913 0.00714567,-0.0121142 0.0270787,-0.0254134 0.0475354,-0.0339685 0.0130276,-0.00544882 0.032126,-0.00624016 0.0468504,-0.00240945zm-0.00712598 0.0358268l-0.0272087 0.0476063c-0.0165827,-0.00396457 -0.0315787,-0.00855906 -0.0390512,-0.0130709 0.0244488,-0.0198228 0.0473031,-0.0302047 0.0662598,-0.0345354zm-0.0308622 0.054l-0.00147638 0.00258268c-0.0208543,0.00180709 -0.0395,0.0105591 -0.0584528,0.0318583 -0.00852756,-0.00852756 -0.00790551,-0.012685 -0.003,-0.0229173 0.00320866,-0.00542126 0.00955512,-0.0131654 0.0195787,-0.0230433 0.0117913,0.00469685 0.0278307,0.00865354 0.0433504,0.0115197zm-0.00427165 0.00747244l-0.0227756 0.0398465c-0.0120945,-0.00065748 -0.0236417,-0.00362598 -0.0304961,-0.0108268 0.0170551,-0.0176378 0.0349252,-0.0259449 0.0532717,-0.0290197zm-0.0606535 -0.0387244c-0.00400787,0.014689 -0.00640551,0.0270197 -0.00445669,0.0428031 0.00483465,-0.00967717 0.0122992,-0.0190197 0.0193504,-0.0272717 -0.00816535,-0.0040315 -0.0153819,-0.00974803 -0.0148937,-0.0155315z"/>
     </clipPath>
     <clipPath id="id6">
      <path d="M0.678913 0.0518425c0.0384409,-0.0351378 0.0715591,-0.0406063 0.0956063,-0.028937 -0.022252,-0.019685 -0.0319724,-0.0236417 -0.0470866,-0.0186614 -0.015626,0.00515354 -0.0296339,0.0158071 -0.0485197,0.0475984zm0.0424449 -0.0223583c-0.0204567,0.00855512 -0.0403898,0.0218543 -0.0475354,0.0339685 -0.00539764,0.00914567 -0.0037126,0.0198701 0.0135197,0.0297913 0.0436063,-0.0415197 0.0864094,-0.054815 0.112626,-0.0389803 -0.00542126,-0.00803937 -0.00957874,-0.0144803 -0.018378,-0.0214843 -0.0140079,-0.00951969 -0.0426535,-0.0106496 -0.0602323,-0.00329528zm-0.0486811 0.123909c0.0145118,0.015252 0.0500787,0.0115039 0.0673071,0.00708661 0.0135669,-0.00347244 0.0351142,-0.0127992 0.0549646,-0.0313228 -0.0422953,-0.0080748 -0.0843031,-0.0150315 -0.122272,0.0242362zm-0.00238583 -0.00205118c0.0238071,-0.0267559 0.0471339,-0.0337205 0.0749646,-0.0319724 -0.0194921,-0.00280315 -0.0427008,-0.00774016 -0.0583858,-0.0139882 -0.0100236,0.00987795 -0.0163701,0.017622 -0.0195787,0.0230433 -0.00490551,0.0102323 -0.00552756,0.0143898 0.003,0.0229173zm0.132386 -0.0294921c0.0183898,-0.0240945 0.0182913,-0.0327677 0.00379921,-0.055752 -0.0159173,-0.0102992 -0.0602677,-0.0103228 -0.111654,0.0313386 0.0199331,0.0120354 0.0933504,0.0246496 0.107854,0.0244134zm-0.137382 -0.0362008c-0.00400787,0.014689 -0.00640551,0.0270197 -0.00445669,0.0428031 0.00483465,-0.00967717 0.0122992,-0.0190197 0.0193504,-0.0272717 -0.00816535,-0.0040315 -0.0153819,-0.00974803 -0.0148937,-0.0155315z"/>
     </clipPath>
  <linearGradient id="id7" gradientUnits="userSpaceOnUse" x1="0.656445" y1="0.104709" x2="0.846744" y2="0.0712677">
   <stop offset="0" style="stop-color:#476CCE"/>
   <stop offset="0.478431" style="stop-color:#2CA9C8"/>
   <stop offset="1" style="stop-color:#10E6C2"/>
  </linearGradient>
  <linearGradient id="id8" gradientUnits="userSpaceOnUse" xlink:href="#id7" x1="0.0266339" y1="0.180114" x2="0.976823" y2="0.0131339">
  </linearGradient>
 </defs>
 <g id="Layer_x0020_1">
  <metadata id="CorelCorpID_0Corel-Layer"/>
  <g id="_310284368">
   <path id="_310283840" class="fil0" d="M0.678913 0.0518425c0.0384409,-0.0351378 0.0715591,-0.0406063 0.0956063,-0.028937 -0.022252,-0.019685 -0.0319724,-0.0236417 -0.0470866,-0.0186614 -0.015626,0.00515354 -0.0296339,0.0158071 -0.0485197,0.0475984zm0.0424449 -0.0223583c-0.0204567,0.00855512 -0.0403898,0.0218543 -0.0475354,0.0339685 -0.00539764,0.00914567 -0.0037126,0.0198701 0.0135197,0.0297913 0.0436063,-0.0415197 0.0864094,-0.054815 0.112626,-0.0389803 -0.00542126,-0.00803937 -0.00957874,-0.0144803 -0.018378,-0.0214843 -0.0140079,-0.00951969 -0.0426535,-0.0106496 -0.0602323,-0.00329528zm-0.0486811 0.123909c0.0145118,0.015252 0.0500787,0.0115039 0.0673071,0.00708661 0.0135669,-0.00347244 0.0351142,-0.0127992 0.0549646,-0.0313228 -0.0422953,-0.0080748 -0.0843031,-0.0150315 -0.122272,0.0242362zm-0.00238583 -0.00205118c0.0238071,-0.0267559 0.0471339,-0.0337205 0.0749646,-0.0319724 -0.0194921,-0.00280315 -0.0427008,-0.00774016 -0.0583858,-0.0139882 -0.0100236,0.00987795 -0.0163701,0.017622 -0.0195787,0.0230433 -0.00490551,0.0102323 -0.00552756,0.0143898 0.003,0.0229173zm0.132386 -0.0294921c0.0183898,-0.0240945 0.0182913,-0.0327677 0.00379921,-0.055752 -0.0159173,-0.0102992 -0.0602677,-0.0103228 -0.111654,0.0313386 0.0199331,0.0120354 0.0933504,0.0246496 0.107854,0.0244134zm-0.137382 -0.0362008c-0.00400787,0.014689 -0.00640551,0.0270197 -0.00445669,0.0428031 0.00483465,-0.00967717 0.0122992,-0.0190197 0.0193504,-0.0272717 -0.00816535,-0.0040315 -0.0153819,-0.00974803 -0.0148937,-0.0155315z"/>
   <g style="clip-path:url(#id0)">
    <g>
     <path id="_47583441" class="fil1" style="mask:url(#id1)" d="M0.678913 0.0518425c0.0384409,-0.0351378 0.0715591,-0.0406063 0.0956063,-0.028937 -0.022252,-0.019685 -0.0319724,-0.0236417 -0.0470866,-0.0186614 -0.015626,0.00515354 -0.0296339,0.0158071 -0.0485197,0.0475984zm0.0424449 -0.0223583c-0.0204567,0.00855512 -0.0403898,0.0218543 -0.0475354,0.0339685 -0.00539764,0.00914567 -0.0037126,0.0198701 0.0135197,0.0297913 0.0436063,-0.0415197 0.0864094,-0.054815 0.112626,-0.0389803 -0.00542126,-0.00803937 -0.00957874,-0.0144803 -0.018378,-0.0214843 -0.0140079,-0.00951969 -0.0426535,-0.0106496 -0.0602323,-0.00329528zm-0.0486811 0.123909c0.0145118,0.015252 0.0500787,0.0115039 0.0673071,0.00708661 0.0135669,-0.00347244 0.0351142,-0.0127992 0.0549646,-0.0313228 -0.0422953,-0.0080748 -0.0843031,-0.0150315 -0.122272,0.0242362zm-0.00238583 -0.00205118c0.0238071,-0.0267559 0.0471339,-0.0337205 0.0749646,-0.0319724 -0.0194921,-0.00280315 -0.0427008,-0.00774016 -0.0583858,-0.0139882 -0.0100236,0.00987795 -0.0163701,0.017622 -0.0195787,0.0230433 -0.00490551,0.0102323 -0.00552756,0.0143898 0.003,0.0229173zm0.132386 -0.0294921c0.0183898,-0.0240945 0.0182913,-0.0327677 0.00379921,-0.055752 -0.0159173,-0.0102992 -0.0602677,-0.0103228 -0.111654,0.0313386 0.0199331,0.0120354 0.0933504,0.0246496 0.107854,0.0244134zm-0.137382 -0.0362008c-0.00400787,0.014689 -0.00640551,0.0270197 -0.00445669,0.0428031 0.00483465,-0.00967717 0.0122992,-0.0190197 0.0193504,-0.0272717 -0.00816535,-0.0040315 -0.0153819,-0.00974803 -0.0148937,-0.0155315z"/>
    </g>
    <g style="clip-path:url(#id3)">
    </g>
    <g style="clip-path:url(#id4)">
     <image id="_200708416" transform="matrix(1 0 0 1 0.121402 0.0948976)" x="0.501665" y="-0.0981457" width="0.186031" height="0.181476" xlink:href="3.svg_Images\3.svg_ImgID1.png"/>
    </g>
    <g style="clip-path:url(#id5)">
    </g>
    <g style="clip-path:url(#id6)">
    </g>
   </g>
   <path class="fil2" d="M0.678913 0.0518425c0.0384409,-0.0351378 0.0715591,-0.0406063 0.0956063,-0.028937 -0.022252,-0.019685 -0.0319724,-0.0236417 -0.0470866,-0.0186614 -0.015626,0.00515354 -0.0296339,0.0158071 -0.0485197,0.0475984zm0.0424449 -0.0223583c-0.0204567,0.00855512 -0.0403898,0.0218543 -0.0475354,0.0339685 -0.00539764,0.00914567 -0.0037126,0.0198701 0.0135197,0.0297913 0.0436063,-0.0415197 0.0864094,-0.054815 0.112626,-0.0389803 -0.00542126,-0.00803937 -0.00957874,-0.0144803 -0.018378,-0.0214843 -0.0140079,-0.00951969 -0.0426535,-0.0106496 -0.0602323,-0.00329528zm-0.0486811 0.123909c0.0145118,0.015252 0.0500787,0.0115039 0.0673071,0.00708661 0.0135669,-0.00347244 0.0351142,-0.0127992 0.0549646,-0.0313228 -0.0422953,-0.0080748 -0.0843031,-0.0150315 -0.122272,0.0242362zm-0.00238583 -0.00205118c0.0238071,-0.0267559 0.0471339,-0.0337205 0.0749646,-0.0319724 -0.0194921,-0.00280315 -0.0427008,-0.00774016 -0.0583858,-0.0139882 -0.0100236,0.00987795 -0.0163701,0.017622 -0.0195787,0.0230433 -0.00490551,0.0102323 -0.00552756,0.0143898 0.003,0.0229173zm0.132386 -0.0294921c0.0183898,-0.0240945 0.0182913,-0.0327677 0.00379921,-0.055752 -0.0159173,-0.0102992 -0.0602677,-0.0103228 -0.111654,0.0313386 0.0199331,0.0120354 0.0933504,0.0246496 0.107854,0.0244134zm-0.137382 -0.0362008c-0.00400787,0.014689 -0.00640551,0.0270197 -0.00445669,0.0428031 0.00483465,-0.00967717 0.0122992,-0.0190197 0.0193504,-0.0272717 -0.00816535,-0.0040315 -0.0153819,-0.00974803 -0.0148937,-0.0155315z"/>
   <path id="_310284176" class="fil3" d="M0.0045748 0.0495276l-0.00291339 0.00117717 0.000125984 0.103433 0.0315354 0 7.48031e-005 -0.0882992 0 -0.00189764 0.00159843 -0.000858268c0.00109843,-0.000594488 0.00226378,-0.00114173 0.00345276,-0.00162992l-3.93701e-006 -3.93701e-006c0.00119685,-0.000492126 0.0024685,-0.000956693 0.00377559,-0.0013622 0.00113386,-0.000397638 0.00229921,-0.000767717 0.00347244,-0.00108661l7.87402e-006 0c0.00116535,-0.000314961 0.00248425,-0.000629921 0.00393701,-0.000929134l7.87402e-006 -1.5748e-005c0.00135433,-0.000275591 0.0028189,-0.000496063 0.00436614,-0.000641732 0.00157087,-0.000149606 0.00311417,-0.000232283 0.00458268,-0.000232283 0.00474803,0 0.0084252,0.00125197 0.0110394,0.00375197l7.87402e-006 -3.93701e-006c0.0012126,0.00116142 0.00225197,0.0025315 0.00309055,0.00411024 0.000795276,0.00149606 0.00140945,0.00314173 0.00182283,0.00491339l-1.5748e-005 0c0.000389764,0.00164567 0.000669291,0.00342913 0.000838583,0.00531496 0.000161417,0.00185827 0.000220472,0.00388189 0.000177165,0.0060315 -7.48031e-005,0.00383071 -0.00011811,0.00813386 -0.000122047,0.012878l-5.90551e-005 0.0599606 0.0315315 0 7.48031e-005 -0.0882992 0 -0.00191732 0.00159843 -0.000854331c0.00104331,-0.000559055 0.00220079,-0.0011063 0.00344488,-0.00162205l2.3622e-005 0c0.00124803,-0.000507874 0.00250787,-0.000976378 0.00374409,-0.00135827 0.00114567,-0.000393701 0.00230315,-0.000767717 0.00348031,-0.00108661 0.00113386,-0.000311024 0.0024685,-0.000625984 0.00394094,-0.000929134l7.87402e-006 -1.5748e-005c0.00135433,-0.000275591 0.00281496,-0.000496063 0.0043622,-0.000641732 0.00157087,-0.000149606 0.00311417,-0.000232283 0.00459055,-0.000232283 0.00472047,0 0.0084252,0.00122835 0.0110984,0.00368898 0.00129528,0.00118504 0.00237008,0.00258268 0.0032126,0.00416929 0.000799213,0.00150394 0.00139764,0.00318504 0.00177559,0.00499606 0.00034252,0.00161417 0.000582677,0.00336614 0.000728346,0.00523228 0.000141732,0.00180709 0.000181102,0.00377953 0.000145669,0.00590157l-9.84252e-005 0.00631496 7.87402e-006 0 -3.14961e-005 0.00670866 -5.90551e-005 0.0599449 0.0315276 0 6.29921e-005 -0.0731693c3.93701e-006,-0.00418504 -0.000283465,-0.00887008 -0.000870079,-0.0140236 -0.000271654,-0.00234646 -0.000814961,-0.00464961 -0.00162205,-0.00686614 -0.000795276,-0.0021811 -0.00187402,-0.00431102 -0.00321654,-0.00636614 -0.00126772,-0.00193307 -0.00293701,-0.00374803 -0.00498425,-0.00540157 -0.0021378,-0.00173622 -0.00473228,-0.00334646 -0.00774803,-0.00480315l3.93701e-006 -3.93701e-006c-0.00295669,-0.0014252 -0.00659843,-0.00251181 -0.0108898,-0.00324409 -0.00444488,-0.000759843 -0.00959055,-0.00114567 -0.0154213,-0.00114567 -0.00853543,0 -0.0163031,0.000669291 -0.0233031,0.00199213 -0.00341732,0.000641732 -0.00680315,0.00134646 -0.0101378,0.00209449 -0.00325591,0.000728346 -0.00625984,0.0014685 -0.00898425,0.00220079l-0.0026378 -0.000287402c-0.0016063,-0.000767717 -0.00340551,-0.0015 -0.00537402,-0.00220079l-3.93701e-006 1.1811e-005c-0.00207874,-0.000728346 -0.0042874,-0.00140157 -0.00658661,-0.00200787l0 1.5748e-005c-0.00463386,-0.0012126 -0.0101535,-0.0018189 -0.0165472,-0.0018189 -0.00452756,0 -0.0088622,0.000161417 -0.0129685,0.000468504 -0.0041811,0.000322835 -0.00815748,0.000799213 -0.0118976,0.00141732 -0.00384646,0.000645669 -0.00742913,0.00132677 -0.0107402,0.00203543 -0.00315354,0.000685039 -0.0061811,0.00143701 -0.00906693,0.00225591 -0.0028622,0.000811024 -0.0053622,0.00156299 -0.00744094,0.00224409 -0.0021378,0.000700787 -0.00398819,0.00137008 -0.0055315,0.00199213zm0.953898 0.0261378c0,-0.00121654 -0.00015748,-0.00217717 -0.000456693,-0.00285039l-7.87402e-006 0c-0.000141732,-0.000314961 -0.000358268,-0.000566929 -0.000610236,-0.000728346 -0.000767717,-0.000492126 -0.00165354,-0.00088189 -0.00262205,-0.00114173l0 -3.93701e-006c-0.0011063,-0.000291339 -0.00234646,-0.000444882 -0.00367717,-0.000444882l-0.00550394 3.93701e-006c-0.00363386,3.93701e-006 -0.00582283,0.00046063 -0.0068622,0.00159055 -0.00111811,0.00122441 -0.0015315,0.00374016 -0.00153937,0.00776378l0 0.00521654 0.00291339 -0.000208661c0.000929134,-6.69291e-005 0.00178346,-0.000141732 0.00251969,-0.000224409l2.3622e-005 0c0.000708661,-7.08661e-005 0.00150787,-0.000177165 0.00240157,-0.000314961l1.9685e-005 0 0.00361811 -0.000527559c0.00158661,-0.000393701 0.00301181,-0.000854331 0.00424803,-0.00137402 0.00128346,-0.000543307 0.00247638,-0.00119291 0.00355118,-0.0019252 0.000625984,-0.000425197 0.0011063,-0.001 0.00142126,-0.00168898 0.000370079,-0.000811024 0.000562992,-0.00187008 0.000562992,-0.00314173zm-0.00785827 0.0784488l-0.00106693 0 -0.00603543 0 -3.93701e-006 0 -9.84252e-005 2.3622e-005c-0.00283465,0 -0.00568504,-0.000110236 -0.00853543,-0.000330709 -0.00272835,-0.000208661 -0.00551181,-0.000543307 -0.00832283,-0.000988189 -0.00298031,-0.000476378 -0.00579134,-0.00117323 -0.00839764,-0.00208661 -0.00272441,-0.000948819 -0.00529528,-0.00214173 -0.00768504,-0.00356693l3.93701e-006 -7.87402e-006c-0.00253937,-0.00150394 -0.00482283,-0.00330709 -0.00683858,-0.00538189 -0.00200787,-0.00206299 -0.00377559,-0.00443701 -0.00528346,-0.00708268l-3.93701e-006 -1.9685e-005c-0.00154724,-0.0027126 -0.00270079,-0.00577953 -0.00344094,-0.00916929 -0.00069685,-0.00320472 -0.00105118,-0.00674803 -0.00104331,-0.0106024l2.3622e-005 -0.0336732c1.1811e-005,-0.0141417 0.00613386,-0.0237992 0.0145906,-0.0302874 0.0120984,-0.00927165 0.0290079,-0.0118189 0.0389843,-0.0118189 0.00308268,0 0.00626772,8.66142e-005 0.00951575,0.000255906 0.00317323,0.000169291 0.00618504,0.000417323 0.00901181,0.000740157 0.00301181,0.000338583 0.00594488,0.000901575 0.00876772,0.00168504l0 -1.9685e-005c0.00278346,0.00076378 0.00545669,0.00176772 0.00799606,0.00299606l3.93701e-006 -1.1811e-005c0.00262205,0.00126772 0.00503937,0.00283465 0.00722835,0.00468898 0.00219291,0.00185827 0.00414961,0.00400394 0.00583858,0.00640157 0.00176772,0.0025 0.00313386,0.00538583 0.00409055,0.00862992 0.000877953,0.00298031 0.00143307,0.00635039 0.00164567,0.0100984l1.9685e-005 0c0.000216535,0.00337402 3.54331e-005,0.00653937 -0.000519685,0.00945276l0 1.5748e-005c-0.000570866,0.00297244 -0.00156299,0.00570472 -0.00296457,0.00814173 -0.00131102,0.00229921 -0.00285039,0.00439764 -0.00459055,0.00626378l-2.3622e-005 0c-0.00177953,0.00190945 -0.00376772,0.00361024 -0.00594882,0.0050748 -0.0021378,0.00142913 -0.00441732,0.0027126 -0.00683465,0.00383858l-1.9685e-005 0c-0.00238189,0.00109843 -0.00494488,0.0020748 -0.00767717,0.0028937l3.93701e-006 1.1811e-005c-0.00263386,0.000811024 -0.00525591,0.00151969 -0.00784646,0.00213386 -0.00262992,0.000629921 -0.00525984,0.00117323 -0.00787795,0.00162992l-4.33071e-005 0 -0.00337795 0.000574803 -5.90551e-005 2.3622e-005 -0.00366535 0.000570866 -1.9685e-005 0 -0.00381102 0.000515748 3.93701e-006 3.93701e-006c-0.00146063,0.00019685 -0.00264567,0.000338583 -0.00364567,0.000452756l-1.9685e-005 0 -0.00322047 0.000334646 -9.84252e-005 1.9685e-005 -0.00196457 0.000173228 -1.5748e-005 0.00567323c0,0.00297244 0.00277953,0.00861811 0.00719291,0.00890157 0.000996063,5.90551e-005 0.000562992,0.000106299 0.00140551,0.000114173l0.00467323 5.11811e-005 0 0.0226614zm-0.691504 -0.079748c0,-0.00447638 -0.0014685,-0.00766535 -0.00440157,-0.00954331 -0.00293307,-0.0018937 -0.00643307,-0.00284646 -0.0104921,-0.00283465l-0.00606299 0c-0.0111457,1.1811e-005 -0.0142913,0.00379134 -0.0142992,0.0153031l-1.5748e-005 0.0128189c0.00111417,0 0.00262205,-7.48031e-005 0.00450394,-0.000216535 0.00188976,-0.000129921 0.00384252,-0.000279528 0.00588583,-0.000405512 0.0020315,-0.000141732 0.00398031,-0.000350394 0.00587402,-0.000633858 0.0018937,-0.000279528 0.0033189,-0.000492126 0.00429921,-0.000622047 0.00406693,-0.000988189 0.00752362,-0.00245669 0.0103976,-0.0044252 0.00287008,-0.00195669 0.00431102,-0.00510236 0.00431102,-0.00944094zm-0.0189016 0.0664134l0.000586614 0 0 0.0133583 -0.0046063 0 -6.69291e-005 0 -6.29921e-005 0 -6.69291e-005 0 -5.90551e-005 0 -6.69291e-005 0 -5.90551e-005 0 -5.90551e-005 0c-0.00601969,0 -0.0118976,-0.000456693 -0.0176378,-0.00137008 -0.00573228,-0.000905512 -0.0108504,-0.00269685 -0.015315,-0.00535039 -0.00448425,-0.00266535 -0.00809449,-0.00638583 -0.0108071,-0.0111299 -0.00270866,-0.00474409 -0.00407874,-0.0110039 -0.00407087,-0.0186811l2.75591e-005 -0.0371102c3.93701e-005,-0.034185 0.0368583,-0.0413819 0.0539764,-0.0413819 0.00700787,0 0.0135866,0.000346457 0.0197362,0.00104331 0.00615354,0.000708661 0.0116142,0.00219685 0.016378,0.0045 0.00475591,0.00232283 0.00862992,0.00561417 0.0116378,0.00987402 0.00301181,0.00426378 0.00472047,0.0100472 0.00512205,0.017315 0.000425197,0.00657874 -0.000637795,0.0120787 -0.00316142,0.0164764 -0.00251969,0.00441732 -0.00592126,0.00804724 -0.010185,0.0109213 -0.00426772,0.00287008 -0.00916929,0.00512992 -0.0147087,0.00682283 -0.00552362,0.0016811 -0.0110787,0.00300394 -0.0166811,0.00398425 -0.00238189,0.000425197 -0.00498031,0.00084252 -0.00777165,0.00126772 -0.00280315,0.000413386 -0.00546063,0.00076378 -0.00798425,0.00103543 -0.00251969,0.000287402 -0.00470472,0.0005 -0.00661024,0.000649606 -0.00188189,0.000125984 -0.00311417,0.00019685 -0.00366929,0.00019685l-1.1811e-005 0.0128858c-7.87402e-006,0.00335827 0.00034252,0.00601969 0.00103937,0.00798031 0.000692913,0.00195669 0.0017874,0.00343307 0.00324803,0.00440945 0.00147638,0.000968504 0.00329134,0.00161417 0.00546063,0.0018937 0.00183071,0.000220472 0.00395669,0.000366142 0.00633465,0.000409449l0.000114173 0zm0.0996299 -0.0809606l-3.93701e-005 0.0304961 -1.1811e-005 0.0226614 -1.1811e-005 0.0126457c0,0.00161417 7.08661e-005,0.00305118 0.00023622,0.0042874 0.00015748,0.00120472 0.000393701,0.00226378 0.00069685,0.00312992l3.93701e-006 0c0.000307087,0.00084252 0.00069685,0.00158268 0.00114567,0.00219685l0 3.93701e-006c0.000425197,0.000582677 0.000940945,0.00107874 0.00150394,0.00145669 0.000622047,0.000413386 0.00135039,0.00076378 0.00214961,0.00103937l3.93701e-006 0c0.000799213,0.000275591 0.00168504,0.000484252 0.00264173,0.000602362l0 -3.93701e-006c0.00161811,0.00019685 0.00981496,0.000334646 0.0130945,0.000385827l0.000850394 1.5748e-005 0.00131102 1.5748e-005 0 0.00129134 -3.93701e-006 0.0129488 -3.93701e-006 0.000917323 -0.00092126 6.29921e-005c-0.000586614,3.14961e-005 -0.00223622,6.69291e-005 -0.00412598,9.44882e-005l-0.00785827 7.08661e-005c-0.00297638,0 -0.00592913,-0.000114173 -0.00885433,-0.00034252 -0.0028937,-0.000220472 -0.00578346,-0.000566929 -0.0086378,-0.00101969 -0.00288976,-0.000448819 -0.00561811,-0.0011378 -0.00818898,-0.0020315 -0.00259843,-0.000901575 -0.00503937,-0.00204331 -0.00730709,-0.00338976 -0.00229528,-0.0013622 -0.00438976,-0.00301181 -0.00624409,-0.0049252 -0.00184646,-0.00190551 -0.00347638,-0.0040748 -0.0048622,-0.00650787 -0.00140945,-0.00245669 -0.00247244,-0.00529528 -0.00316929,-0.00848425 -0.000681102,-0.00312992 -0.00101969,-0.00663386 -0.00101181,-0.0104685l0.000106299 -0.0768701 0 -0.000984252 0.000992126 0 0.0352244 0 0.00133071 0 0 0.00131496 0 0.00834646 0.0222992 0 0.00132677 0 0 0.00131496 -1.1811e-005 0.0129961 -3.93701e-006 0.000988189 -0.000988189 0 -0.0226496 0 -1.1811e-005 -0.00425591zm0.0656772 0.0585079c0,0.00179528 0.000275591,0.00331102 0.000830709,0.00451181l0 1.1811e-005c0.000484252,0.00104331 0.00120866,0.00188976 0.00215354,0.00249606l-3.93701e-006 3.93701e-006c0.00116535,0.000744094 0.00247638,0.0013189 0.00390551,0.00170866 0.00144882,0.000385827 0.00305906,0.000590551 0.00481496,0.000590551 0.00227953,0 0.00435827,-5.90551e-005 0.00621654,-0.000173228l7.87402e-006 0c0.00191339,-0.000110236 0.0036811,-0.000287402 0.00527953,-0.000511811 0.00156299,-0.000220472 0.00298819,-0.000476378 0.00422835,-0.000748031l1.1811e-005 0c0.000669291,-0.000145669 0.00129921,-0.00030315 0.00188189,-0.000468504l1.9685e-005 -0.0205276 -0.00156299 9.05512e-005 3.93701e-006 3.93701e-006 -0.00559449 0.000393701 -2.75591e-005 0 -5.11811e-005 7.87402e-006c-0.000964567,6.69291e-005 -0.0018937,0.000149606 -0.00274803,0.00023622l0 7.87402e-006 -0.00277953 0.000346457 -0.00324803 0.000488189 -1.1811e-005 0 -0.00073622 0.000110236c-0.00179921,0.000433071 -0.00348425,0.000980315 -0.00501575,0.00162992 -0.0015315,0.000641732 -0.00295276,0.00141732 -0.00423622,0.00229921 -0.00110236,0.000751969 -0.00192913,0.00173228 -0.00247638,0.00291732 -0.000570866,0.00125197 -0.000862205,0.0027874 -0.000862205,0.0045748zm0.0149094 -0.079122l0.00188189 0 0.000944882 -4.33071e-005 5.90551e-005 0 0.00201575 -3.93701e-005 4.33071e-005 -7.87402e-006c0.00294094,0 0.00587402,0.000110236 0.00878346,0.000334646 0.00284252,0.000220472 0.00569685,0.000555118 0.00852362,0.00100787 0.00291339,0.00046063 0.00567323,0.00114567 0.00824016,0.00204331 0.00261024,0.000909449 0.0050748,0.00205512 0.00736614,0.00342126l1.1811e-005 3.93701e-006 3.93701e-006 3.93701e-006c0.00235433,0.0013937 0.00448819,0.0030748 0.0063937,0.00503937l3.93701e-006 -3.93701e-006c0.00188583,0.00194094 0.00354331,0.00416535 0.00496457,0.00664567l3.93701e-006 0c0.00144882,0.00251181 0.00253543,0.00540157 0.00323228,0.00864567 0.000685039,0.00314961 0.00102756,0.00666535 0.00102362,0.0105197l-6.69291e-005 0.0685787 -7.87402e-006 0.00143307 -0.00133858 0.000401575 -0.00371654 0.00109843 0 3.93701e-006c-0.0012126,0.000362205 -0.00275984,0.000767717 -0.00462205,0.00119291 -0.00180709,0.00042126 -0.00383858,0.000846457 -0.00606693,0.00127953 -0.00226378,0.000440945 -0.00479921,0.000862205 -0.00756693,0.00125197 -0.00273228,0.000385827 -0.00572835,0.000755906 -0.00894882,0.00109055 -0.00322441,0.000338583 -0.0066378,0.000598425 -0.0102323,0.000767717l-7.87402e-006 0c-0.00367323,0.000173228 -0.00743307,0.00026378 -0.0112717,0.00026378 -0.00678346,0 -0.0131929,-0.000346457 -0.0192087,-0.0010315 -0.00307874,-0.000346457 -0.00600394,-0.000905512 -0.00874409,-0.00165748 -0.00274409,-0.000755906 -0.00535433,-0.00173622 -0.00780315,-0.00292126 -0.00250787,-0.00121654 -0.00477953,-0.00269291 -0.00680315,-0.00440945 -0.00204724,-0.00172835 -0.00387008,-0.00372835 -0.00544094,-0.00597244 -0.00161024,-0.00228346 -0.00287795,-0.0049685 -0.00377559,-0.00801181 -0.000862205,-0.00290945 -0.00138583,-0.00622047 -0.00159449,-0.0098937l-1.1811e-005 0c-0.000216535,-0.00333465 -5.51181e-005,-0.00642126 0.000484252,-0.00923228l-3.93701e-006 -1.1811e-005c0.00053937,-0.00282677 0.00148819,-0.00540945 0.00281102,-0.00772047 0.00127165,-0.00222441 0.00277953,-0.00428346 0.00451181,-0.00613386 0.00173228,-0.00185827 0.00368898,-0.00351969 0.00583071,-0.00495669 0.00212205,-0.00141732 0.00440945,-0.00270866 0.0068622,-0.00385039l1.1811e-005 0c0.00244488,-0.00112992 0.00504331,-0.00211811 0.00775591,-0.00294882 0.00268504,-0.000811024 0.0053937,-0.00155118 0.00812205,-0.00220079 0.00272047,-0.000645669 0.00544882,-0.0012126 0.00817323,-0.00168504l7.87402e-006 0 0.00364567 -0.000622047 3.54331e-005 -7.87402e-006 0.0038189 -0.000586614 1.5748e-005 0 0.00393701 -0.000562992 3.14961e-005 -7.87402e-006 0.00371654 -0.000468504 5.51181e-005 0 0.00335827 -0.000338583 3.54331e-005 -7.87402e-006 0.00300394 -0.000251969 4.72441e-005 0 0.00172441 -0.000110236 7.87402e-006 -0.0105472c0,-0.00155512 -6.69291e-005,-0.00291339 -0.000220472,-0.00404724l0 -7.87402e-006c-0.000141732,-0.00109055 -0.000358268,-0.00203937 -0.000637795,-0.0028189l0 -1.1811e-005c-0.000248031,-0.000688976 -0.000559055,-0.00129921 -0.000925197,-0.00179528l-3.93701e-006 -7.87402e-006c-0.000318898,-0.000437008 -0.00069685,-0.000807087 -0.00112205,-0.00108661l-7.87402e-006 -7.87402e-006c-0.000503937,-0.000334646 -0.00109843,-0.000625984 -0.00175591,-0.000850394 -0.000716535,-0.000248031 -0.00151575,-0.000433071 -0.00238189,-0.000543307 -0.000822835,-0.000102362 -0.00174803,-0.00019685 -0.00275984,-0.000255906l-7.87402e-006 0c-0.00103543,-6.69291e-005 -0.00209843,-0.000110236 -0.00314961,-0.000114173l-0.00129528 -1.1811e-005 0 -0.0172244zm0.446756 0.0655l-2.3622e-005 0.0242165 -1.5748e-005 0.0214291 0 0.0037874 -0.0038189 0 -0.0339409 0 -0.00512598 0 3.93701e-006 -0.0050748 7.87402e-005 -0.0716339 3.93701e-006 0c-7.87402e-006,-0.0039252 0.000354331,-0.00751181 0.00105906,-0.0107283l-3.93701e-006 -1.5748e-005c0.000728346,-0.00329921 0.00183858,-0.00625984 0.00333071,-0.00885039 0.00145276,-0.00253543 0.0031378,-0.00479528 0.00504331,-0.00674409l7.87402e-006 7.87402e-006c0.00195669,-0.00200787 0.00411811,-0.00371654 0.00645276,-0.00509055l3.93701e-006 7.87402e-006c0.00228346,-0.0013622 0.00477559,-0.00251575 0.00745276,-0.00344488 0.00263386,-0.000925197 0.00544882,-0.00162205 0.00840157,-0.00209449 0.00292126,-0.00046063 0.00578346,-0.00080315 0.00856693,-0.00102362 0.00292913,-0.000224409 0.00585039,-0.000338583 0.00876378,-0.000338583l0.00764961 7.87402e-005c0.00193307,2.3622e-005 0.00359055,5.90551e-005 0.00412205,9.44882e-005l0.0048189 0.000330709 3.93701e-006 0.00472047 0 0.0124803 -3.93701e-006 0.00373622 -0.0037874 3.54331e-005c-0.0013937,7.87402e-006 -0.00558268,7.08661e-005 -0.00901575,0.000161417 -0.0018622,5.11811e-005 -0.00346457,0.000122047 -0.00407087,0.000192913l0 -1.1811e-005c-0.000704724,9.44882e-005 -0.00138583,0.000259843 -0.00200787,0.000472441l-7.87402e-006 -1.1811e-005c-0.000535433,0.000188976 -0.00103543,0.000437008 -0.00145276,0.000708661l3.93701e-006 1.1811e-005c-0.000362205,0.000244094 -0.000685039,0.000547244 -0.000933071,0.000885827l1.1811e-005 7.87402e-006c-0.000318898,0.000433071 -0.000586614,0.000933071 -0.000775591,0.00148031l0 1.5748e-005c-0.000240157,0.000669291 -0.000429134,0.00149213 -0.000555118,0.00244488l3.93701e-006 1.9685e-005c-0.000141732,0.00105906 -0.000216535,0.00231496 -0.000220472,0.00373622l-7.87402e-006 0.0121732 -1.5748e-005 0.0218268zm-0.384244 -0.0542126l0.00425984 -0.00172441c0.00146457,-0.000594488 0.00323228,-0.00123228 0.00525984,-0.00189764 0.00206693,-0.000669291 0.00435039,-0.00137008 0.00679921,-0.00206299l7.87402e-006 1.1811e-005c0.00257874,-0.000728346 0.00538189,-0.0014252 0.00839764,-0.0020748 0.00302362,-0.000653543 0.0062874,-0.00127165 0.00976772,-0.00185039 0.00358661,-0.000598425 0.0072874,-0.00104724 0.0110787,-0.00133858 0.0038622,-0.000287402 0.0078622,-0.000440945 0.0119606,-0.000440945 0.00624016,0 0.0117205,0.000614173 0.0164055,0.00184252 0.00219685,0.000570866 0.00433465,0.00122441 0.00640157,0.00195276l3.93701e-006 -7.87402e-006c0.00150787,0.000527559 0.00293701,0.00109449 0.00428346,0.00169291 0.00224409,-0.000594488 0.00458268,-0.00116142 0.00699213,-0.00170079 0.00274803,-0.00061811 0.00581102,-0.00125197 0.00919291,-0.00188976 0.00337795,-0.000637795 0.00685827,-0.00111811 0.0104291,-0.00142126 0.0036378,-0.000307087 0.00742126,-0.000468504 0.0113504,-0.000468504 0.00552362,0 0.0104646,0.000377953 0.0148031,0.00111811 0.00447638,0.00076378 0.00837008,0.00194882 0.0116339,0.00352362 0.00322835,0.00155512 0.00605118,0.0033189 0.00843307,0.00525197 0.00248425,0.00201575 0.0045315,0.00424803 0.00611024,0.00665354 0.00151575,0.00231496 0.00273622,0.00473228 0.00364961,0.00724409l-7.87402e-006 0c0.000905512,0.00248425 0.00150787,0.00505906 0.00181102,0.00767717 0.000291339,0.00255512 0.0005,0.0048622 0.000629921,0.00690157 0.000133858,0.00216929 0.000200787,0.00425591 0.00019685,0.00625197l-5.51181e-005 0.0674961 -3.93701e-006 0.00290551 -0.0029252 0 -0.0344528 0 -0.00392913 0 7.87402e-006 -0.00388583 4.72441e-005 -0.056752 0 -1.1811e-005 2.75591e-005 -0.0060315 7.87402e-006 -2.75591e-005 8.66142e-005 -0.00552362 -7.87402e-006 -2.3622e-005c3.54331e-005,-0.00162992 0,-0.00316929 -0.000114173,-0.00458661 -0.000110236,-0.00137008 -0.000279528,-0.00262992 -0.000515748,-0.00375197l-3.93701e-006 -2.75591e-005c-0.000192913,-0.000937008 -0.000476378,-0.00175197 -0.000834646,-0.0024252 -0.000311024,-0.000586614 -0.000708661,-0.0011063 -0.00117323,-0.00153543 -0.000346457,-0.000314961 -0.000846457,-0.000582677 -0.0014685,-0.000767717 -0.000838583,-0.000251969 -0.00190945,-0.000385827 -0.00320866,-0.000385827 -0.00235433,0 -0.00457874,0.000212598 -0.00664961,0.000637795l-3.93701e-006 -1.1811e-005c-0.000996063,0.000208661 -0.00203543,0.00046063 -0.00309449,0.000748031l0 3.93701e-006c-0.00100787,0.000275591 -0.00194094,0.000574803 -0.0027874,0.000866142l-9.84252e-005 4.33071e-005c-0.00105512,0.000330709 -0.00201575,0.000673228 -0.00284646,0.00101181l0 7.87402e-006 -0.00105512 0.000464567 -6.29921e-005 0.0790591 -7.87402e-006 0.00290551 -0.00292126 0 -0.0344606 0 -0.0039252 0 3.93701e-006 -0.00388583 5.11811e-005 -0.056752 -3.93701e-006 -1.1811e-005 3.14961e-005 -0.00583465 7.87402e-006 -2.75591e-005 8.26772e-005 -0.00561417 -3.93701e-006 -2.75591e-005c3.54331e-005,-0.00166142 -7.87402e-006,-0.0032126 -0.000133858,-0.00462992 -0.000122047,-0.0013937 -0.000314961,-0.00265354 -0.000566929,-0.00373228l-1.9685e-005 -1.5748e-005c-0.000228346,-0.000980315 -0.000531496,-0.00183071 -0.000901575,-0.00251575 -0.000330709,-0.000629921 -0.00073622,-0.00116535 -0.00118898,-0.00160236 -0.000295276,-0.000279528 -0.000744094,-0.000519685 -0.00133465,-0.000700787 -0.000826772,-0.000251969 -0.00188189,-0.000385827 -0.00316929,-0.000385827 -0.00235039,0 -0.00457874,0.000220472 -0.00664567,0.000637795 -0.00217323,0.000448819 -0.00414567,0.000992126 -0.00588189,0.0016063l-0.000110236 4.33071e-005c-0.00102362,0.000314961 -0.00198031,0.000665354 -0.00284646,0.00102362l-1.1811e-005 0 -0.00103937 0.000456693 -6.69291e-005 0.079063 -3.93701e-006 0.00290551 -0.0029252 0 -0.0344567 0 -0.00392126 0 0 -0.00387008 -0.00011811 -0.0970827 -3.93701e-006 -0.00198819 0.00175591 -0.000704724z"/>
  </g>
 </g>
</svg>
