<?xml version="1.0" encoding="UTF-8"?>
<!DOCTYPE svg PUBLIC "-//W3C//DTD SVG 1.1//EN" "http://www.w3.org/Graphics/SVG/1.1/DTD/svg11.dtd">
<!-- Creator: CorelDRAW -->
<svg xmlns="http://www.w3.org/2000/svg" xml:space="preserve" width="2in" height="0.666661in" style="shape-rendering:geometricPrecision; text-rendering:geometricPrecision; image-rendering:optimizeQuality; fill-rule:evenodd; clip-rule:evenodd"
viewBox="0 0 2 0.666661"
 xmlns:xlink="http://www.w3.org/1999/xlink">
 <defs>
  <style type="text/css">
   <![CDATA[
    .fil0 {fill:#201E1E}
    .fil1 {fill:#201E1E;fill-rule:nonzero}
   ]]>
  </style>
 </defs>
 <g id="Layer_x0020_1">
  <metadata id="CorelCorpID_0Corel-Layer"/>
  <path class="fil0" d="M1.32406 0.275768c0.0702756,-0.064252 0.130827,-0.074248 0.174795,-0.0529134 -0.0406811,-0.0359803 -0.0584567,-0.0432126 -0.0860827,-0.0341142 -0.0285709,0.00942126 -0.0541811,0.0288976 -0.0887126,0.0870276zm0.0775945 -0.0408858c-0.0374016,0.0156457 -0.0738346,0.0399606 -0.0869055,0.0621024 -0.00986614,0.0167283 -0.00678346,0.0363307 0.0247205,0.0544724 0.0797244,-0.0759055 0.15798,-0.10022 0.205913,-0.0712717 -0.00991732,-0.014689 -0.0175236,-0.0264685 -0.0336063,-0.0392795 -0.0256063,-0.0174055 -0.0779724,-0.0194685 -0.110122,-0.00602362zm-0.0889921 0.226551c0.0265236,0.0278858 0.0915512,0.0210236 0.123051,0.0129528 0.0247992,-0.00635433 0.0641969,-0.0234016 0.100484,-0.0572677 -0.0773307,-0.0147598 -0.15413,-0.0274764 -0.223535,0.044315zm-0.00436614 -0.00374803c0.0435276,-0.0489291 0.0861732,-0.0616535 0.137055,-0.0584606 -0.0356417,-0.00512992 -0.0780709,-0.0141496 -0.106744,-0.0255748 -0.0183228,0.018063 -0.0299331,0.0322126 -0.0357913,0.0421299 -0.00898425,0.0187087 -0.0101063,0.026315 0.00548031,0.0419055zm0.242031 -0.0539291c0.033626,-0.0440472 0.0334488,-0.0599055 0.00694488,-0.101929 -0.0290984,-0.0188268 -0.110185,-0.0188701 -0.204126,0.0572992 0.0364409,0.0220039 0.170665,0.0450669 0.197181,0.0446299zm-0.251165 -0.0661811c-0.00733465,0.0268504 -0.0117205,0.0493976 -0.00815748,0.0782559 0.00885039,-0.0176969 0.0224961,-0.0347795 0.0353858,-0.0498622 -0.0149331,-0.00737402 -0.028122,-0.0178228 -0.0272283,-0.0283937z"/>
  <path class="fil1" d="M0.0911732 0.271531l-0.00532677 0.00214961 0.000232283 0.189106 0.0576535 0 0.000141732 -0.161441 -3.93701e-006 -0.00346063 0.0029252 -0.0015748c0.00200787,-0.00108661 0.0041378,-0.00208661 0.00630709,-0.00297638l0 -7.87402e-006c0.00218898,-0.000901575 0.00450787,-0.00175197 0.00690157,-0.00249213 0.00206693,-0.000728346 0.00420079,-0.00140157 0.00634252,-0.00198819l1.9685e-005 0c0.00212598,-0.000574803 0.00454331,-0.00114961 0.00719685,-0.00169685l1.1811e-005 -2.75591e-005c0.00248031,-0.000503937 0.00515354,-0.000909449 0.00798425,-0.00117717 0.00287402,-0.000271654 0.00569291,-0.000425197 0.00838189,-0.000425197 0.00867717,0 0.0154055,0.00229528 0.0201811,0.0068622l1.5748e-005 -7.87402e-006c0.00221654,0.00212205 0.00411417,0.00462992 0.00564961,0.00751575 0.00145276,0.00273228 0.00257874,0.00574409 0.00333071,0.00898425l-2.75591e-005 0c0.000708661,0.00301181 0.00122441,0.00626378 0.00152756,0.00971654 0.00030315,0.00340157 0.000409449,0.00709449 0.000330709,0.0110236 -0.000133858,0.00700394 -0.000216535,0.014874 -0.000224409,0.0235512l-0.000106299 0.109622 0.0576457 0 0.000137795 -0.161441 0 -0.0035 0.00291732 -0.00156299c0.00190945,-0.00102362 0.0040315,-0.00202362 0.00630315,-0.00296457l4.33071e-005 0c0.00228346,-0.000929134 0.00458661,-0.00178346 0.00685039,-0.00248425 0.00208661,-0.000720472 0.00420866,-0.00140157 0.0063622,-0.00198819 0.00206693,-0.000562992 0.00450787,-0.00114173 0.00720472,-0.00169685l1.1811e-005 -2.75591e-005c0.00247244,-0.000503937 0.00514567,-0.000909449 0.00797244,-0.00117717 0.00287402,-0.000271654 0.00569685,-0.000425197 0.0083937,-0.000425197 0.00862992,0 0.0154055,0.00224803 0.0202913,0.00674409 0.00236614,0.00216929 0.00433071,0.00472047 0.00587008,0.00762598 0.00146457,0.00275197 0.00256299,0.00582677 0.00325197,0.00913386 0.000622047,0.00295276 0.00106299,0.00614961 0.00132677,0.00956693 0.000259843,0.00330315 0.000338583,0.00690551 0.000267717,0.0107913l-0.000181102 0.0115433 1.9685e-005 0 -5.90551e-005 0.0122677 -0.000110236 0.109594 0.0576417 0 0.00011811 -0.133776c3.93701e-006,-0.00764961 -0.000523622,-0.0162205 -0.00159449,-0.0256417 -0.000496063,-0.0042874 -0.00148819,-0.00849606 -0.00296063,-0.0125551 -0.00145669,-0.00398031 -0.00342913,-0.00787402 -0.00588583,-0.0116299 -0.00231496,-0.00353543 -0.00537008,-0.00685433 -0.00911417,-0.00988189 -0.00390945,-0.00317717 -0.00864567,-0.00611417 -0.0141614,-0.00877559l7.87402e-006 -1.1811e-005c-0.00540551,-0.0026063 -0.012063,-0.00459449 -0.0199094,-0.00593307 -0.00812598,-0.00138583 -0.0175354,-0.00209449 -0.0282008,-0.00209449 -0.0155984,0 -0.0298071,0.00122441 -0.0425984,0.00364173 -0.00624803,0.00117717 -0.0124409,0.00246457 -0.0185354,0.00383071 -0.00595669,0.00133071 -0.0114488,0.00268504 -0.0164252,0.00402756l-0.00482283 -0.000531496c-0.00293701,-0.00140157 -0.00622835,-0.00274016 -0.00983071,-0.00401969l-7.87402e-006 1.9685e-005c-0.00379921,-0.00133071 -0.00783858,-0.00256299 -0.0120354,-0.00366929l-3.93701e-006 2.75591e-005c-0.0084685,-0.0022126 -0.018563,-0.00332677 -0.030248,-0.00332677 -0.00828346,0 -0.0162047,0.000295276 -0.0237126,0.000862205 -0.00764567,0.000586614 -0.0149173,0.00145669 -0.0217559,0.00259055 -0.0070315,0.00117717 -0.0135827,0.0024252 -0.0196299,0.00372047 -0.00577165,0.00125197 -0.0113071,0.00262598 -0.0165827,0.00411811 -0.00523228,0.00148425 -0.00980315,0.0028622 -0.0136063,0.00411024 -0.00390157,0.00127559 -0.00728346,0.0025 -0.0101102,0.00364173zm1.744 0.0477874c0,-0.00222441 -0.000287402,-0.00398031 -0.000838583,-0.0052126l-7.87402e-006 0c-0.00026378,-0.000574803 -0.000661417,-0.00103937 -0.00112205,-0.00133465 -0.00140157,-0.000901575 -0.00301969,-0.00161024 -0.00479528,-0.00208268l0 -7.87402e-006c-0.00201969,-0.000535433 -0.0042874,-0.000818898 -0.00672047,-0.000818898l-0.0100669 1.1811e-005c-0.0066378,3.93701e-006 -0.0106417,0.000838583 -0.0125433,0.00290551 -0.00204331,0.00224016 -0.00279921,0.00684252 -0.00281102,0.0141969l-3.93701e-006 0.00953937 0.00533071 -0.00038189c0.00169291,-0.000125984 0.00325984,-0.00026378 0.0046063,-0.000409449l3.93701e-005 0c0.00129528,-0.000133858 0.00275984,-0.000326772 0.0043937,-0.000574803l3.93701e-005 0 0.00661024 -0.000964567c0.00290157,-0.000724409 0.00550787,-0.00156299 0.00776772,-0.00251969 0.00234252,-0.000988189 0.00452362,-0.00217717 0.00649213,-0.00351575 0.00114567,-0.000775591 0.00202362,-0.00182677 0.00259449,-0.00308661 0.000677165,-0.00148425 0.0010315,-0.00342126 0.00103543,-0.00574409zm-0.0143701 0.143429l-0.00194882 0 -0.0110394 0 -7.87402e-006 0 -0.000177165 3.93701e-005c-0.0051811,0 -0.0103937,-0.000204724 -0.0156024,-0.000606299 -0.00498819,-0.00038189 -0.0100787,-0.000992126 -0.0152205,-0.00180709 -0.00544488,-0.000870079 -0.0105866,-0.00214567 -0.0153543,-0.00380709 -0.00497244,-0.00174409 -0.00967717,-0.00391732 -0.0140472,-0.00652362l7.87402e-006 -1.5748e-005c-0.00464173,-0.00275591 -0.0088189,-0.00604724 -0.0125079,-0.00984252 -0.00366929,-0.00377165 -0.00690157,-0.0081063 -0.00965748,-0.0129449l-7.87402e-006 -3.93701e-005c-0.00282283,-0.00496063 -0.00493701,-0.010563 -0.00628346,-0.0167638 -0.00127953,-0.0058622 -0.0019252,-0.0123386 -0.00191339,-0.0193819l4.72441e-005 -0.0615669c1.9685e-005,-0.0258543 0.0112126,-0.0435157 0.0266772,-0.055374 0.0221181,-0.0169488 0.0530315,-0.0216142 0.0712717,-0.0216142 0.00563386,0 0.0114606,0.000165354 0.0173976,0.000472441 0.00579528,0.000307087 0.0113071,0.00076378 0.0164764,0.00135039 0.00550394,0.000622047 0.0108661,0.00165354 0.0160276,0.00308661l0 -3.93701e-005c0.00508661,0.00139764 0.00998031,0.00323228 0.0146181,0.00548031l1.1811e-005 -2.3622e-005c0.00479134,0.00231496 0.0092126,0.00518504 0.0132126,0.0085748 0.00401181,0.00339764 0.00758661,0.0073189 0.0106772,0.0117047 0.00322835,0.00457087 0.00572441,0.00984646 0.00747638,0.0157795 0.0016063,0.00544094 0.00261811,0.0116063 0.00300787,0.0184567l3.54331e-005 0c0.000401575,0.00617323 6.69291e-005,0.0119567 -0.000952756,0.0172835l7.87402e-006 3.14961e-005c-0.00104724,0.00543307 -0.0028622,0.0104252 -0.00542126,0.0148858 -0.00239764,0.00420079 -0.0052126,0.00803543 -0.00839764,0.0114528l-3.93701e-005 0c-0.00325591,0.00348819 -0.00688583,0.00659449 -0.0108819,0.00927559 -0.00390157,0.00261417 -0.0080748,0.00496063 -0.0124921,0.00701575l-3.54331e-005 0c-0.00435039,0.00201181 -0.00904331,0.00379528 -0.0140394,0.00529528l1.1811e-005 2.3622e-005c-0.00481496,0.00147638 -0.00961024,0.00277165 -0.0143504,0.00390157 -0.00480709,0.00114961 -0.00961417,0.0021378 -0.0143976,0.00297638l-7.87402e-005 0 -0.0061811 0.00105118 -0.000102362 3.93701e-005 -0.00670472 0.00104724 -3.93701e-005 0 -0.00696063 0.000940945 3.93701e-006 7.87402e-006c-0.00266929,0.000358268 -0.00483465,0.000622047 -0.00666142,0.000826772l-3.93701e-005 0 -0.00588976 0.000614173 -0.000181102 3.54331e-005 -0.00359055 0.000314961 -2.75591e-005 0.010374c0,0.00543307 0.00508268,0.0157559 0.0131535,0.0162756 0.0018189,0.000110236 0.00102362,0.00019685 0.00256693,0.000208661l0.00854331 9.44882e-005 0 0.0414331zm-1.26427 -0.145807c0,-0.0081811 -0.00268504,-0.0140157 -0.00804331,-0.0174488 -0.00536614,-0.00346457 -0.0117638,-0.00520472 -0.019189,-0.00517717l-0.0110866 0c-0.0203701,1.5748e-005 -0.026126,0.00693307 -0.0261417,0.0279764l-3.14961e-005 0.023437c0.00203937,0 0.00479528,-0.000137795 0.00823622,-0.000393701 0.00346063,-0.000240157 0.00702756,-0.000515748 0.0107638,-0.000744094 0.00371654,-0.000255906 0.00727559,-0.000641732 0.0107362,-0.00116142 0.00346457,-0.000507874 0.00607087,-0.000893701 0.0078622,-0.0011378 0.00743701,-0.00180709 0.0137559,-0.00448819 0.0190118,-0.00808661 0.00524803,-0.00358268 0.00787795,-0.00932677 0.00788189,-0.0172638zm-0.0345591 0.121425l0.0010748 0 0 0.0244213 -0.0084252 0 -0.000122047 0 -0.000110236 0 -0.000122047 0 -0.000110236 0 -0.000122047 0 -0.000110236 0 -0.000110236 0c-0.011,0 -0.0217441,-0.000834646 -0.032248,-0.00250394 -0.0104764,-0.00165354 -0.0198346,-0.00492913 -0.0279961,-0.00978346 -0.00820079,-0.00487402 -0.0147992,-0.0116772 -0.0197598,-0.0203504 -0.00495276,-0.00866929 -0.00745276,-0.0201102 -0.00744094,-0.0341535l5.11811e-005 -0.0678504c7.08661e-005,-0.0624961 0.0673898,-0.0756575 0.098685,-0.0756575 0.0128071,0 0.0248346,0.000633858 0.0360827,0.00190945 0.011252,0.00129528 0.0212362,0.00401969 0.0299409,0.00822441 0.00869685,0.00425197 0.0157835,0.0102677 0.0212835,0.0180512 0.0055,0.00779921 0.00862598,0.018374 0.0093622,0.0316614 0.000771654,0.0120236 -0.00116535,0.0220827 -0.00577953,0.030122 -0.00461024,0.00807874 -0.0108268,0.0147165 -0.018626,0.0199724 -0.00779921,0.00524016 -0.0167598,0.00937795 -0.0268898,0.0124724 -0.0100984,0.0030748 -0.0202559,0.00549213 -0.0304961,0.00728346 -0.00435827,0.000779528 -0.0091063,0.00153937 -0.0142087,0.0023189 -0.00512598,0.000751969 -0.00998425,0.00139764 -0.0145984,0.0018937 -0.00461024,0.000519685 -0.00860236,0.000909449 -0.0120866,0.00118504 -0.00344094,0.000228346 -0.00569291,0.000358268 -0.00670472,0.000358268l-2.3622e-005 0.0235591c-1.5748e-005,0.00614173 0.000625984,0.0110118 0.00189764,0.0145906 0.00126772,0.00358268 0.00327165,0.00627953 0.00594094,0.00806299 0.00270079,0.00177165 0.00601575,0.00295276 0.00998031,0.00346063 0.00335039,0.000401575 0.00723622,0.000669291 0.0115827,0.000751969l0.000208661 0zm0.182154 -0.14802l-7.08661e-005 0.0557559 -2.75591e-005 0.0414291 -1.9685e-005 0.023122c3.93701e-006,0.00294882 0.000133858,0.0055748 0.000433071,0.00783858 0.000287402,0.00220079 0.000720472,0.00413386 0.00127559,0.00572441l7.87402e-006 0c0.000559055,0.00153937 0.00127165,0.0028937 0.00209055,0.00401181l0 7.87402e-006c0.000779528,0.00106693 0.00172047,0.00197638 0.00275591,0.00266535 0.00113386,0.000755906 0.00246457,0.0013937 0.0039252,0.00190157l7.87402e-006 0c0.00146063,0.000503937 0.00308268,0.00088189 0.00483071,0.00109843l-3.93701e-006 -7.87402e-006c0.00296457,0.000362205 0.0179528,0.000614173 0.0239449,0.000704724l0.00155906 2.75591e-005 0.00238976 3.54331e-005 3.93701e-006 0.0023622 -1.1811e-005 0.0236693 -3.93701e-006 0.0016811 -0.00168504 0.000110236c-0.0010748,5.90551e-005 -0.00408268,0.000125984 -0.00753937,0.000177165l-0.0143701 0.000125984c-0.00544094,0 -0.0108425,-0.000212598 -0.016185,-0.000622047 -0.00529528,-0.000405512 -0.0105787,-0.00103543 -0.0157953,-0.00187008 -0.00528346,-0.000822835 -0.0102756,-0.0020748 -0.0149724,-0.0037126 -0.00474803,-0.00164961 -0.00921654,-0.00373622 -0.0133583,-0.00620079 -0.00420079,-0.00248819 -0.0080315,-0.00550787 -0.0114173,-0.00900394 -0.00337795,-0.00348031 -0.00635433,-0.00744882 -0.00888976,-0.0118976 -0.0025748,-0.00449213 -0.00451969,-0.00967717 -0.00579134,-0.0155039 -0.00124803,-0.00572835 -0.00186614,-0.0121339 -0.00185039,-0.0191457l0.000192913 -0.140539 -3.93701e-006 -0.00179921 0.0018189 0 0.0644016 0 0.00242913 0 -3.93701e-006 0.00240157 7.87402e-006 0.0152638 0.0407638 0 0.00242913 0 0 0.00240551 -1.9685e-005 0.0237598 -7.87402e-006 0.00179921 -0.00180709 0 -0.0414134 0 -1.9685e-005 -0.00777559zm0.120075 0.106969c3.93701e-006,0.0032874 0.000507874,0.00605512 0.00151969,0.00825197l3.93701e-006 1.5748e-005c0.00088189,0.00190945 0.00220866,0.00345669 0.00393701,0.00456693l-7.87402e-006 7.87402e-006c0.00213386,0.00135827 0.00452362,0.00241339 0.00714173,0.00312205 0.00264567,0.000704724 0.00558661,0.00107874 0.00879921,0.00107874 0.00416535,0 0.0079685,-0.000106299 0.0113661,-0.000314961l1.5748e-005 0c0.0035,-0.000204724 0.00672835,-0.000523622 0.00965354,-0.000937008 0.00285827,-0.000405512 0.00545669,-0.000870079 0.00773228,-0.00136614l1.5748e-005 0c0.00122047,-0.00026378 0.00237402,-0.000551181 0.00344094,-0.000858268l3.93701e-005 -0.0375276 -0.00285827 0.000165354 3.93701e-006 7.87402e-006 -0.0102283 0.000720472 -4.72441e-005 0 -9.84252e-005 7.87402e-006c-0.00175984,0.000125984 -0.00345669,0.000275591 -0.00501969,0.000437008l0 1.1811e-005 -0.00508661 0.000633858 -0.00593701 0.000893701 -1.5748e-005 0 -0.00134646 0.00019685c-0.00329134,0.000791339 -0.00637402,0.00179528 -0.00916929,0.00298425 -0.00279921,0.00117717 -0.00540157,0.00259055 -0.00774803,0.00420472 -0.00201575,0.00137795 -0.0035315,0.00316929 -0.0045315,0.00533465 -0.00103937,0.0022874 -0.0015748,0.00509449 -0.0015748,0.0083622zm0.0272598 -0.144654l0.00344094 0 0.00172441 -8.26772e-005 0.000110236 0 0.00368504 -7.48031e-005 7.87402e-005 -1.5748e-005c0.00537795,0 0.0107402,0.000204724 0.0160591,0.00061811 0.00519685,0.000397638 0.0104173,0.00101181 0.0155827,0.00183465 0.00532677,0.000850394 0.010374,0.00209843 0.0150709,0.00373622 0.00476772,0.00166535 0.00927559,0.00376378 0.0134685,0.00625591l1.5748e-005 7.87402e-006 7.87402e-006 7.87402e-006c0.00431102,0.00254724 0.00820866,0.00562598 0.011689,0.00921654l7.87402e-006 -1.1811e-005c0.00344882,0.00355118 0.00648031,0.00761811 0.00907874,0.0121496l7.87402e-006 0c0.00264961,0.00459449 0.00463386,0.00988189 0.00591339,0.015811 0.00124409,0.00575984 0.00187402,0.012189 0.00186614,0.0192362l-0.000122047 0.125374 -1.1811e-005 0.00262598 -0.00245276 0.000732283 -0.00679528 0.00200787 0 7.87402e-006c-0.00221654,0.000661417 -0.00503937,0.00140157 -0.00844882,0.00218504 -0.00330315,0.000767717 -0.00701575,0.00154724 -0.0110906,0.00233858 -0.0041378,0.000807087 -0.00877559,0.00157874 -0.0138346,0.0022874 -0.005,0.000704724 -0.0104724,0.00138189 -0.0163622,0.00199213 -0.0058937,0.00061811 -0.0121339,0.00109449 -0.0187087,0.00140945l-1.5748e-005 0c-0.0067126,0.000311024 -0.0135866,0.000476378 -0.0206024,0.000476378 -0.0124055,0 -0.024122,-0.000633858 -0.035122,-0.00188583 -0.00562598,-0.000633858 -0.0109803,-0.00165354 -0.0159882,-0.00302756 -0.00501575,-0.00138583 -0.00979134,-0.00317717 -0.0142638,-0.00534646 -0.00458268,-0.00222047 -0.00874016,-0.00492126 -0.0124409,-0.00805906 -0.00374016,-0.00315748 -0.00707087,-0.00681496 -0.00994488,-0.0109173 -0.00294094,-0.00417717 -0.00526378,-0.00908661 -0.00690157,-0.0146496 -0.0015748,-0.0053189 -0.00253937,-0.0113701 -0.00292126,-0.0180866l-1.5748e-005 0c-0.000397638,-0.00609843 -0.000102362,-0.0117402 0.00088189,-0.0168858l-3.93701e-006 -1.5748e-005c0.000988189,-0.00516929 0.00271654,-0.0098937 0.0051378,-0.0141181 0.00232677,-0.00406693 0.00508661,-0.00783071 0.00824803,-0.0112087 0.00317323,-0.00340157 0.00674409,-0.00643701 0.0106654,-0.00906693 0.00387402,-0.00259055 0.00805906,-0.00495669 0.0125472,-0.00703937l1.5748e-005 0c0.0044685,-0.00206299 0.00922047,-0.00387402 0.014185,-0.00538976 0.00490157,-0.00148031 0.00985433,-0.00283858 0.0148465,-0.00402756 0.00497244,-0.00117717 0.00996457,-0.0022126 0.0149449,-0.0030748l1.5748e-005 0 0.00666535 -0.0011378 6.29921e-005 -1.5748e-005 0.00698031 -0.00107087 3.14961e-005 0 0.00719291 -0.00102756 5.51181e-005 -1.5748e-005 0.00679921 -0.000862205 9.84252e-005 0 0.00614173 -0.000614173 6.29921e-005 -1.5748e-005 0.00549606 -0.00046063 8.26772e-005 0 0.00315748 -0.000204724 1.1811e-005 -0.0192835c0,-0.00283858 -0.000122047,-0.00532283 -0.000401575,-0.00739764l-3.93701e-006 -1.5748e-005c-0.000255906,-0.00199213 -0.000649606,-0.00372441 -0.00116142,-0.00515354l-3.93701e-006 -1.9685e-005c-0.000448819,-0.00125591 -0.00102362,-0.00237795 -0.00169291,-0.00328346l-3.93701e-006 -1.5748e-005c-0.000582677,-0.000799213 -0.00127559,-0.00147638 -0.00205118,-0.00198425l-1.9685e-005 -1.5748e-005c-0.000917323,-0.000610236 -0.002,-0.00114567 -0.00320866,-0.00155512 -0.00130709,-0.000452756 -0.00277165,-0.000791339 -0.00435039,-0.000988189 -0.00150787,-0.000192913 -0.00319291,-0.000362205 -0.00504724,-0.000468504l-1.5748e-005 0c-0.0018937,-0.000125984 -0.00383465,-0.000208661 -0.00575197,-0.000216535l-0.00237402 -1.9685e-005 0 -0.0314843zm0.816795 0.119748l-3.93701e-005 0.0442756 -2.3622e-005 0.0391772 -7.87402e-006 0.0069252 -0.00698031 0 -0.0620551 0 -0.00937008 0 1.1811e-005 -0.00927559 0.000141732 -0.130969 7.87402e-006 0c-1.1811e-005,-0.00717323 0.000645669,-0.0137362 0.00193307,-0.0196142l-3.93701e-006 -3.14961e-005c0.00132677,-0.00603543 0.0033622,-0.0114449 0.00608661,-0.0161811 0.00265748,-0.00463386 0.00574016,-0.00876378 0.00921654,-0.0123268l1.9685e-005 1.5748e-005c0.0035748,-0.00367717 0.00752756,-0.00679528 0.0117992,-0.00931496l7.87402e-006 1.9685e-005c0.00417323,-0.00248819 0.00873228,-0.00460236 0.013626,-0.00630315 0.00481496,-0.00168504 0.00995669,-0.00296457 0.0153543,-0.00382283 0.00534252,-0.00084252 0.0105787,-0.00147244 0.0156654,-0.00187008 0.00535827,-0.000413386 0.0106969,-0.000625984 0.0160236,-0.000625984l0.0139843 0.000149606c0.00353543,3.93701e-005 0.00656693,0.000102362 0.00753543,0.000169291l0.00881102 0.000606299 3.93701e-006 0.00863386 3.93701e-006 0.022815 -3.93701e-006 0.00682677 -0.0069252 6.29921e-005c-0.00254724,1.9685e-005 -0.0102087,0.000129921 -0.0164843,0.000299213 -0.00340551,9.05512e-005 -0.00633465,0.000220472 -0.00744094,0.000350394l-3.93701e-006 -1.5748e-005c-0.00128346,0.000169291 -0.0025315,0.000468504 -0.00367323,0.000858268l-7.87402e-006 -1.5748e-005c-0.000980315,0.000338583 -0.0018937,0.000791339 -0.00266142,0.00129528l1.1811e-005 1.5748e-005c-0.000665354,0.000444882 -0.00125591,0.00100394 -0.00170866,0.00161811l1.9685e-005 1.5748e-005c-0.000582677,0.000795276 -0.00107087,0.0017126 -0.00141732,0.00270472l3.93701e-006 3.54331e-005c-0.000437008,0.00122047 -0.000783465,0.00272835 -0.00101575,0.0044685l3.93701e-006 3.54331e-005c-0.000259843,0.00193307 -0.000389764,0.00423228 -0.000401575,0.00683465l-1.1811e-005 0.0222559 -3.54331e-005 0.0399016zm-0.702508 -0.099122l0.0077874 -0.00314961c0.0026811,-0.00108268 0.00590945,-0.00225197 0.00962205,-0.0034685 0.00377559,-0.00122441 0.00794882,-0.00250787 0.0124291,-0.00377165l1.1811e-005 2.3622e-005c0.00472047,-0.00133071 0.00983858,-0.0026063 0.0153543,-0.00379528 0.00552756,-0.00119291 0.0114961,-0.00232677 0.0178583,-0.00338583 0.00655906,-0.00109449 0.0133228,-0.00190945 0.0202559,-0.00244094 0.00706299,-0.000527559 0.014378,-0.000811024 0.0218661,-0.000811024 0.0114094,0 0.0214291,0.00112598 0.0299961,0.00336614 0.00401969,0.00105118 0.0079252,0.00224409 0.0117047,0.0035748l3.93701e-006 -1.5748e-005c0.00275591,0.000968504 0.00537402,0.00200394 0.00783465,0.00309449 0.00410236,-0.00108268 0.00837795,-0.00211811 0.0127835,-0.00311024 0.00502362,-0.00112598 0.010622,-0.00228346 0.0168031,-0.00345276 0.00617717,-0.00116535 0.0125433,-0.00204331 0.0190748,-0.00259449 0.00664567,-0.000562992 0.0135669,-0.000862205 0.020748,-0.000862205 0.0100945,0 0.0191339,0.000692913 0.0270669,0.00204331 0.0081811,0.00139764 0.0152992,0.00356693 0.0212638,0.00644488 0.00590551,0.00284646 0.0110669,0.00606693 0.0154213,0.00959843 0.00454724,0.00368898 0.0082874,0.00777165 0.0111732,0.0121732 0.00277165,0.00422835 0.00499606,0.00864567 0.00666929,0.0132362l-1.5748e-005 0c0.00165748,0.00454331 0.00275984,0.00925197 0.00331496,0.0140433 0.000531496,0.00466535 0.000909449,0.00888583 0.00114961,0.0126181 0.000248031,0.00396457 0.000370079,0.00777953 0.000366142,0.0114252l-0.000106299 0.123402 -7.87402e-006 0.00531496 -0.00534646 0 -0.0629921 0 -0.0071811 0 1.1811e-005 -0.00710236 9.05512e-005 -0.103756 -3.93701e-006 -2.75591e-005 5.11811e-005 -0.0110276 1.5748e-005 -5.11811e-005 0.000153543 -0.0100945 -7.87402e-006 -4.72441e-005c5.90551e-005,-0.00298031 -3.93701e-006,-0.00579134 -0.000208661,-0.00838189 -0.000200787,-0.00250787 -0.000511811,-0.00480709 -0.000944882,-0.0068622l-7.87402e-006 -4.72441e-005c-0.000350394,-0.00171654 -0.000874016,-0.00320079 -0.00152362,-0.00443701 -0.000570866,-0.0010748 -0.00129921,-0.00202756 -0.00214961,-0.00280315 -0.000629921,-0.00057874 -0.00154724,-0.00106693 -0.0026811,-0.00140945 -0.0015315,-0.00046063 -0.00349213,-0.000700787 -0.00587008,-0.000700787 -0.00429921,0 -0.00836614,0.000389764 -0.0121575,0.00116535l-3.93701e-006 -2.3622e-005c-0.00182283,0.000377953 -0.00372441,0.00084252 -0.00565748,0.00136614l0 7.87402e-006c-0.00184252,0.000503937 -0.00355118,0.00105118 -0.00509449,0.00158661l-0.000181102 7.48031e-005c-0.00192913,0.000606299 -0.0036811,0.00123228 -0.00520472,0.00185433l0 7.87402e-006 -0.0019252 0.000854331 -0.000122047 0.144539 -7.87402e-006 0.00531496 -0.00534646 0 -0.063 0 -0.0071811 0 1.1811e-005 -0.00710236 9.05512e-005 -0.103756 -3.93701e-006 -2.75591e-005 5.11811e-005 -0.0106654 1.9685e-005 -4.72441e-005 0.000149606 -0.0102677 -7.87402e-006 -5.11811e-005c6.29921e-005,-0.00303543 -1.5748e-005,-0.00587402 -0.000244094,-0.00846457 -0.000224409,-0.00254724 -0.00057874,-0.00485039 -0.00103937,-0.00682677l-2.75591e-005 -2.3622e-005c-0.00042126,-0.00179528 -0.000980315,-0.00335039 -0.00165354,-0.00460236 -0.000606299,-0.00114961 -0.00134252,-0.00213386 -0.00217323,-0.00292913 -0.000535433,-0.000511811 -0.0013622,-0.000948819 -0.00243701,-0.00128346 -0.00151575,-0.00046063 -0.00344488,-0.000700787 -0.00579528,-0.000700787 -0.00430315,0 -0.00837402,0.000397638 -0.0121496,0.00116535 -0.00397638,0.000818898 -0.00757874,0.00181102 -0.0107559,0.00293701l-0.000204724 7.48031e-005c-0.00187008,0.000582677 -0.00362205,0.00121654 -0.00520472,0.00187008l-1.5748e-005 0 -0.00190551 0.000838583 -0.000122047 0.144547 -7.87402e-006 0.00531496 -0.00534252 0 -0.063 0 -0.00716929 0 0 -0.0070748 -0.000216535 -0.1775 -7.87402e-006 -0.00363386 0.00320866 -0.00129134z"/>
 </g>
</svg>
